<?xml version='1.0' encoding='utf-8'?>
<svg xmlns="http://www.w3.org/2000/svg" width="3000" height="3000" viewBox="0 0 3000 3000"> <defs> <clipPath id="clip-iPhone_XR_XS_Max_11_2"> <rect width="3000" height="3000"/> </clipPath> </defs> <g id="iPhone_XR_XS_Max_11_2" data-name="iPhone XR, XS Max, 11 – 2" clip-path="url(#clip-iPhone_XR_XS_Max_11_2)"> <rect width="3000" height="3000" fill="#fff"/> <g id="Group_383" data-name="Group 383" transform="translate(47.972 342)"> <g id="Group_382" data-name="Group 382" transform="translate(0 332.839)"> <g id="Group_381" data-name="Group 381" transform="translate(0 0)"> <path id="Path_1141" data-name="Path 1141" d="M4669.655,8463.1c483.312,152.027,966.415,73.621,1439.979-429.25C6996.449,7092.154,4704.117,7031.4,4704.117,7031.4s-1405.519-972.076-1288.392,0S4374.286,8370.191,4669.655,8463.1Z" transform="translate(-3408.792 -6549.876)" fill="#bbb" opacity="0.75"/> <path id="Path_1142" data-name="Path 1142" d="M2.841,0A2.841,2.841,0,1,1,0,2.841,2.841,2.841,0,0,1,2.841,0Z" transform="translate(2897.719)" fill="#989898"/> </g> </g> <g id="Group_384" data-name="Group 384" transform="translate(1450.49 654.617)"> <g id="Group_77" data-name="Group 77" transform="translate(0)"> <path id="Path_235" data-name="Path 235" d="M726.679,1320.691l-58.2,482.491H649.395l58.2-482.491Z" transform="translate(-392.21 -778.513)" fill="#d2dcff"/> <path id="Path_236" data-name="Path 236" d="M681.412,1320.69l-6.546,54.264-51.649,428.229h-19.09l51.907-430.35,6.288-52.143Z" transform="translate(-604.127 -778.516)" fill="#d2dcff"/> <path id="Path_237" data-name="Path 237" d="M726.679,1803.183H707.59l-8.047-66.731L690,1657.333l-31.393-260.251-9.213-76.391h19.09l9.477,78.573L699.543,1578.2l9.542,79.119Z" transform="translate(-392.21 -778.516)" fill="#d2dcff"/> <path id="Path_238" data-name="Path 238" d="M771.947,1803.183h-19.09l-45.168-374.5h0l-13.023-108h19.09l13.277,110.078Z" transform="translate(-180.293 -778.516)" fill="#d2dcff"/> <g id="Group_76" data-name="Group 76" transform="translate(59.126 219.64)"> <rect id="Rectangle_11" data-name="Rectangle 11" width="19.09" height="291.858" fill="#d2dcff"/> <rect id="Rectangle_12" data-name="Rectangle 12" width="19.085" height="291.858" transform="translate(259.372)" fill="#d2dcff"/> </g> <path id="Path_239" data-name="Path 239" d="M915.53,1315.291H653.272a15.341,15.341,0,0,1,15.34,15.34h0a15.336,15.336,0,0,1-15.34,15.334H915.53a15.331,15.331,0,0,0,15.334-15.334h0A15.337,15.337,0,0,0,915.53,1315.291Z" transform="translate(-374.058 -803.793)" fill="#d2dcff"/> <path id="Path_240" data-name="Path 240" d="M867.828,1330.631h0a15.341,15.341,0,0,0-15.34-15.34H626.058a15.341,15.341,0,0,0-15.34,15.34h0a15.336,15.336,0,0,0,15.34,15.334h226.43A15.336,15.336,0,0,0,867.828,1330.631Z" transform="translate(-573.274 -803.793)" fill="#86a2e2"/> <rect id="Rectangle_13" data-name="Rectangle 13" width="352.403" height="219.641" rx="3.763" transform="translate(22.156)" fill="#d2dcff"/> <path id="Path_241" data-name="Path 241" d="M638.638,1320.69l-6.545,54.263c-6.891-.772-13.2-1.482-18.829-2.119l6.284-52.145Z" transform="translate(-561.355 -778.518)" fill="#aec3ff"/> <path id="Path_242" data-name="Path 242" d="M668.484,1320.69l9.477,78.575q-9.724-1.091-19.357-2.181L649.4,1320.69Z" transform="translate(-392.208 -778.518)" fill="#aec3ff"/> <path id="Path_243" data-name="Path 243" d="M727.024,1430.769c-6.158-.66-12.618-1.352-19.34-2.08h0l-13.022-108h19.085Z" transform="translate(-180.291 -778.518)" fill="#aec3ff"/> <path id="Path_244" data-name="Path 244" d="M614.534,1263.921h19.09v40.31l-19.09-2.112Z" transform="translate(-555.408 -1044.281)" fill="#aec3ff"/> <path id="Path_245" data-name="Path 245" d="M679.271,1263.921v69.021l-19.085-2.112v-66.909Z" transform="translate(-341.688 -1044.281)" fill="#aec3ff"/> </g> </g> <g id="Group_80" data-name="Group 80" transform="translate(1825.163 598.127)"> <path id="Rectangle_18" data-name="Rectangle 18" d="M4.762,0H226.231a0,0,0,0,1,0,0V996.586a0,0,0,0,1,0,0H4.762A4.762,4.762,0,0,1,0,991.824V4.762A4.762,4.762,0,0,1,4.762,0Z" transform="translate(0 147.926)" fill="#86a2e2"/> <path id="Rectangle_19" data-name="Rectangle 19" d="M0,0H596.159a4.762,4.762,0,0,1,4.762,4.762V991.824a4.762,4.762,0,0,1-4.762,4.762H0a0,0,0,0,1,0,0V0A0,0,0,0,1,0,0Z" transform="translate(226.231 147.926)" fill="#aec3ff"/> <rect id="Rectangle_20" data-name="Rectangle 20" width="475.649" height="229.885" transform="translate(288.867 230.835)" fill="#d2dcff"/> <rect id="Rectangle_21" data-name="Rectangle 21" width="54.451" height="95.726" transform="translate(54.45 1144.514)" fill="#d2dcff"/> <rect id="Rectangle_22" data-name="Rectangle 22" width="54.451" height="95.726" transform="translate(226.232 1144.514)" fill="#d2dcff"/> <rect id="Rectangle_23" data-name="Rectangle 23" width="54.451" height="95.726" transform="translate(567.904 1144.514)" fill="#d2dcff"/> <rect id="Rectangle_24" data-name="Rectangle 24" width="54.451" height="95.726" transform="translate(739.682 1144.514)" fill="#d2dcff"/> <rect id="Rectangle_25" data-name="Rectangle 25" width="184.46" height="15.21" rx="1.301" transform="translate(446.154 413.793)" fill="#aec3ff"/> <rect id="Rectangle_26" data-name="Rectangle 26" width="475.649" height="229.885" transform="translate(288.867 531.276)" fill="#d2dcff"/> <rect id="Rectangle_27" data-name="Rectangle 27" width="184.46" height="15.21" rx="1.301" transform="translate(446.154 714.235)" fill="#aec3ff"/> <rect id="Rectangle_28" data-name="Rectangle 28" width="475.649" height="229.885" transform="translate(288.867 831.718)" fill="#d2dcff"/> <rect id="Rectangle_29" data-name="Rectangle 29" width="184.46" height="15.21" rx="1.301" transform="translate(446.154 1014.676)" fill="#aec3ff"/> <path id="Path_250" data-name="Path 250" d="M760.657,1388.765h54.451v24.653l-54.451-2.691Z" transform="translate(-706.207 -244.251)" fill="#aec3ff"/> <path id="Path_251" data-name="Path 251" d="M790.893,1388.765h54.451V1421.9l-54.451-2.69Z" transform="translate(-564.661 -244.251)" fill="#aec3ff"/> <path id="Path_252" data-name="Path 252" d="M851.031,1388.765h54.45v54.327l-54.45-2.691Z" transform="translate(-283.126 -244.251)" fill="#aec3ff"/> <path id="Path_253" data-name="Path 253" d="M935.716,1388.765v62.809l-54.451-2.691v-60.118Z" transform="translate(-141.583 -244.251)" fill="#aec3ff"/> <path id="Path_254" data-name="Path 254" d="M860.321,1200.082h86.563a7.12,7.12,0,0,1,7.074,7.965l-7.324,61.172a7.124,7.124,0,0,1-7.073,6.278H867.644a7.128,7.128,0,0,1-7.073-6.278l-7.323-61.172A7.122,7.122,0,0,1,860.321,1200.082Z" transform="translate(-272.989 -1127.571)" fill="#d2dcff"/> <path id="Path_255" data-name="Path 255" d="M936.252,1234.866v-27.814l-16.641,31.618V1187.32l-13.075,32.332L893.46,1187.32v51.351l-16.641-31.618v27.814l-24.25-38.988,10.685,63.951h86.563l10.684-63.951Z" transform="translate(-275.922 -1187.32)" fill="#6277d7"/> </g> <g id="Group_96" data-name="Group 96" transform="translate(376.03 1166.069)"> <path id="Path_315" data-name="Path 315" d="M2471.372,1474.177c67.466-123.533-145.527-181.621-196.876-132.618S2393.381,1616.969,2471.372,1474.177Z" transform="translate(-2265.012 -1199.647)" fill="#fe9ecc"/> <path id="Path_316" data-name="Path 316" d="M2383.835,1539.111c132.407,0,72.484-236.828,15.874-236.828C2328.731,1302.283,2230.855,1539.111,2383.835,1539.111Z" transform="translate(-2087.931 -1302.283)" fill="#fe9ecc"/> <path id="Path_317" data-name="Path 317" d="M2363.808,1511.249c109.164,88.864,205.113-109.971,166.292-169.388S2237.633,1408.533,2363.808,1511.249Z" transform="translate(-1965.854 -1188.517)" fill="#fe9ecc"/> <path id="Path_318" data-name="Path 318" d="M2481.378,1540.739c-18.424-42.64-45.395-82.359-80.154-118.062-59.138-60.735-121.345-89.222-121.965-89.506a3.681,3.681,0,0,0-3.027,6.71c.606.272,61.728,28.305,119.9,88.12,34.089,35.049,60.52,74.013,78.552,115.806,2.045,4.739,3.949,9.534,5.778,14.352h7.869C2486.163,1552.3,2483.862,1546.489,2481.378,1540.739Z" transform="translate(-2222.625 -1159.204)" fill="#ff78ba"/> <path id="Path_319" data-name="Path 319" d="M2340.072,1314.224a3.679,3.679,0,1,0-7.307-.87c-.24,2.005-18.807,160.718-17.856,351.259h7.357C2321.317,1474.561,2339.834,1316.229,2340.072,1314.224Z" transform="translate(-2031.583 -1265.658)" fill="#ff78ba"/> <path id="Path_320" data-name="Path 320" d="M2524.1,1335.306a3.673,3.673,0,0,0-5.1-1.017c-.529.353-53.634,36.077-108.279,94.836-29.759,32-63.585,74.9-88.375,125.187h8.228c24.226-48.066,56.733-89.2,85.421-120.051,54.064-58.167,106.568-93.5,107.1-93.853A3.68,3.68,0,0,0,2524.1,1335.306Z" transform="translate(-1996.621 -1155.356)" fill="#ff78ba"/> <path id="Path_321" data-name="Path 321" d="M2432.659,1372.5H2297.11a5.809,5.809,0,0,0-5.528,7.607l6.489,19.89,3.277,10.068,46.935,144a9.5,9.5,0,0,0,9.035,6.55h169.176a9.5,9.5,0,0,0,9.03-6.55l46.938-144L2585.74,1400l6.484-19.89a5.806,5.806,0,0,0-5.522-7.607H2432.659Z" transform="translate(-2141.976 -973.548)" fill="#d2dcff"/> <path id="Path_322" data-name="Path 322" d="M2580.16,1377.343l-3.28,10.068H2295.766l-3.28-10.068Z" transform="translate(-2136.393 -950.889)" fill="#aec3ff"/> </g> <g id="Group_33" data-name="Group 33" transform="translate(763.754 0)"> <g id="Group_31" data-name="Group 31" transform="translate(289.23 0)"> <g id="Group_26" data-name="Group 26" transform="translate(6.926 83.774)"> <path id="Path_86" data-name="Path 86" d="M1314.8,495.7c74.371,12.4,167.036-15.283,178.654-32.907,26.925,41.032,40.606,39.748,40.606,39.748v30.771l6.08-6.079c1.874-4.239,4.853-8.448,9.306-8.448,24.487,0,26.2,68.11-15.016,72.047-.813,2.67-1.648,5.164-2.506,7.42V707.262h-92.959V664.385a67.78,67.78,0,0,1-17.739,2.7c-36.65,0-99.107-53.9-106.192-139.862C1314.607,511,1314.8,495.7,1314.8,495.7Z" transform="translate(-1314.757 -462.788)" fill="#fcbeb7"/> </g> <path id="Path_87" data-name="Path 87" d="M1436.4,448.043c64.11,0,76.933,34.191,76.933,34.191,27.356,0,69.24,50.009,44.02,105.574l-.125.125-14.4,14.4V571.564s-13.681,1.284-40.605-39.748c-11.619,17.624-104.284,45.3-178.655,32.907,0,0-.192,15.306.233,31.532v.045C1296.025,515.954,1351.777,448.043,1436.4,448.043Z" transform="translate(-1316.6 -448.043)" fill="#311643"/> <g id="Group_27" data-name="Group 27" transform="translate(142.24 151.844)"> <path id="Path_88" data-name="Path 88" d="M1338.632,494.609a5.132,5.132,0,0,0,5.131-5.13v-9.585a5.131,5.131,0,0,0-10.261,0v9.585A5.136,5.136,0,0,0,1338.632,494.609Z" transform="translate(-1333.502 -474.769)" fill="#311643"/> </g> <g id="Group_28" data-name="Group 28" transform="translate(47.143 151.844)"> <path id="Path_89" data-name="Path 89" d="M1355.371,494.609a5.132,5.132,0,0,0,5.13-5.13v-9.585a5.131,5.131,0,0,0-10.261,0v9.585A5.132,5.132,0,0,0,1355.371,494.609Z" transform="translate(-1350.24 -474.769)" fill="#311643"/> </g> <g id="Group_29" data-name="Group 29" transform="translate(103.085 213.205)"> <path id="Path_90" data-name="Path 90" d="M1343.01,503.914a29.341,29.341,0,0,0,19.164-6.579,26.266,26.266,0,0,0,6.823-8.448,2.352,2.352,0,0,0-4.285-1.943h0c-.266.585-6.766,14.221-25.657,12.033a2.351,2.351,0,1,0-.54,4.671A39.077,39.077,0,0,0,1343.01,503.914Z" transform="translate(-1336.431 -485.569)" fill="#311643"/> </g> <ellipse id="Ellipse_11" data-name="Ellipse 11" cx="25.359" cy="25.359" rx="25.359" ry="25.359" transform="translate(156.062 163.484)" fill="#f49795"/> <path id="Path_91" data-name="Path 91" d="M1351.661,481.119a180.854,180.854,0,0,0,15.415,46.384,25.359,25.359,0,1,0-15.415-46.384Z" transform="translate(-1341.823 -313.333)" fill="#f49795"/> <g id="Group_30" data-name="Group 30" transform="translate(16.338 111.715)"> <ellipse id="Ellipse_12" data-name="Ellipse 12" cx="31.236" cy="31.236" rx="31.236" ry="31.236" transform="translate(99.798 4.701)" fill="none"/> <ellipse id="Ellipse_13" data-name="Ellipse 13" cx="31.236" cy="31.236" rx="31.236" ry="31.236" transform="translate(61.766 71.774) rotate(-170.783)" fill="none"/> <path id="Path_92" data-name="Path 92" d="M1364.015,467.706a35.99,35.99,0,0,1,35.731,32.089,27.623,27.623,0,0,1,23.64-.017,36,36,0,1,1-.175,5.193,23.473,23.473,0,0,0-23.294.028,35.932,35.932,0,1,1-35.9-37.294Zm95.1,67.172a31.237,31.237,0,1,0-31.236-31.237A31.27,31.27,0,0,0,1459.111,534.878Zm-95.1,0a31.237,31.237,0,1,0-31.237-31.237A31.269,31.269,0,0,0,1364.015,534.878Z" transform="translate(-1328.079 -467.706)" fill="#fff"/> </g> <path id="Path_93" data-name="Path 93" d="M1326.185,568.686V525.807c21.017-5.778,44.953-19.925,62.939-33.418Z" transform="translate(-1195.051 -240.437)" fill="#f9afab"/> </g> <path id="Path_94" data-name="Path 94" d="M1282.729,1422.493h98.453l165.547-727.982,169.591,727.982h98.453l-91.735-816.717H1359.309Z" transform="translate(-1084.578 290.379)" fill="#6277d7"/> <path id="Path_95" data-name="Path 95" d="M1575.852,756.493v69.575a14.693,14.693,0,0,1-14.692,14.692H1363.819a3.4,3.4,0,0,1-3.4-3.4v-13.4a15.261,15.261,0,0,1,8.625-13.743l111.273-53.724Z" transform="translate(-1287.062 995.964)" fill="#2f3d6c"/> <path id="Path_96" data-name="Path 96" d="M1260.255,756.493v69.575a14.689,14.689,0,0,0,14.687,14.692h197.34a3.4,3.4,0,0,0,3.4-3.4v-13.4a15.257,15.257,0,0,0-8.63-13.743l-111.272-53.724Z" transform="translate(-617.803 995.964)" fill="#2f3d6c"/> <path id="Path_97" data-name="Path 97" d="M1462.4,749.526l-7.412,39.584h-95.938l4.9-39.584Z" transform="translate(-1165.79 963.348)" fill="#fcbeb7"/> <path id="Path_98" data-name="Path 98" d="M1379.811,749.526l7.787,39.584h-95.532l-10.707-39.584Z" transform="translate(-649.615 963.348)" fill="#fcbeb7"/> <path id="Path_99" data-name="Path 99" d="M1667.825,623.293l-369.3,20.863,3.6-38.38h363.728" transform="translate(-1027.397 290.379)" fill="#4a5ea3"/> <path id="Path_100" data-name="Path 100" d="M1301.929,538.07" transform="translate(-680.816 -26.582)" fill="#fcbeb7"/> <line id="Line_2" data-name="Line 2" x1="83.932" y2="64.525" transform="translate(639.994 465.775)" fill="#fcbeb7"/> <path id="Path_101" data-name="Path 101" d="M1382.184,751.273l-24.09,351.986h363.724L1699.53,852.438l4.943-133.851,18.88,18.817,83.938-64.525-45.1-73.5a111.789,111.789,0,0,0-46.469-42.094l-103.449-50.213-3.79-1.835-11.806-5.733s-53.986,35.43-92.8,0l-20.732,7.818-4.216,1.585-109.641,41.327a70.5,70.5,0,0,0-38.958,35.993l-46.5,98.92Z" transform="translate(-1083.36 -207.105)" fill="#89aeff"/> <g id="Group_32" data-name="Group 32" transform="translate(395.574 298.137)"> <path id="Path_102" data-name="Path 102" d="M1322.372,502.6a106.2,106.2,0,0,0,125.335-2.085l3.789,1.835a109.958,109.958,0,0,1-133.339,1.835Z" transform="translate(-1318.157 -500.518)" fill="#fff"/> </g> <path id="Path_103" data-name="Path 103" d="M1291.834,519.168a31.284,31.284,0,0,0,41.583,29.515,111.678,111.678,0,0,0-40.283-38.469A31.308,31.308,0,0,0,1291.834,519.168Z" transform="translate(-654.956 -156.99)" fill="#4a62d3"/> <ellipse id="Ellipse_14" data-name="Ellipse 14" cx="47.126" cy="47.126" rx="47.126" ry="47.126" transform="translate(570.859 1173.871)" fill="#4a5ea3"/> <ellipse id="Ellipse_15" data-name="Ellipse 15" cx="47.126" cy="47.126" rx="47.126" ry="47.126" transform="translate(256.461 1173.871)" fill="#4a5ea3"/> <rect id="Rectangle_4" data-name="Rectangle 4" width="326.401" height="211.859" rx="1.615" transform="translate(763.145 936.601) rotate(-164.073)" fill="#4a5ea3"/> <rect id="Rectangle_5" data-name="Rectangle 5" width="89.095" height="158.254" rx="0.843" transform="translate(346.48 377.452)" fill="#4a5ea3"/> <path id="Path_104" data-name="Path 104" d="M1334.042,755.978l66.3-156.713,50.587,33.822,71.07-62.28,14.527-49.8a3.541,3.541,0,0,1,3.046-3.051,10.8,10.8,0,0,1,12.142,11.926l-2.494,21.817,26.374,3.5a49.193,49.193,0,0,0,21.192-1.835l24.538-7.715a13.806,13.806,0,0,1,17.386,9.266h0l9.47-2.193a8.758,8.758,0,0,1,10.449,6.329l.067.256a8.765,8.765,0,0,1-4.426,9.965h0a14.27,14.27,0,0,1-10.073,17.306l-.216.062h0a16.14,16.14,0,0,1-8.886,18.84l-18.567,8.483a47.374,47.374,0,0,1-22.3,4.221l-42.18-3.431-143.225,187.2-.028.034h0a44.378,44.378,0,0,1-52.775,11.664h0A44.368,44.368,0,0,1,1334.042,755.978Z" transform="translate(-1199.873 -121.217)" fill="#fcbeb7"/> <path id="Path_105" data-name="Path 105" d="M1360.729,546.568a30.247,30.247,0,0,0,39.486-38.094,70.589,70.589,0,0,0-38.4,35.788Z" transform="translate(-1114.841 -165.136)" fill="#4a62d3"/> <path id="Path_106" data-name="Path 106" d="M1462.749,539.532,1386,580.981l-17.349,41.01Z" transform="translate(-1220.733 -19.736)" fill="#f9afab"/> <path id="Path_107" data-name="Path 107" d="M1279.719,768.05l108.646-189.324-22.986-6.56Z" transform="translate(-641.069 133.036)" fill="#2f3d6c"/> <ellipse id="Ellipse_16" data-name="Ellipse 16" cx="29.814" cy="29.814" rx="29.814" ry="29.814" transform="translate(147.921 626.004)" fill="#f9afab"/> <path id="Path_108" data-name="Path 108" d="M1274.188,573.519a31.629,31.629,0,0,0,25.567,31.043l5.324-12.38a43,43,0,0,0-2.222-38.418L1296.79,543.2A31.642,31.642,0,0,0,1274.188,573.519Z" transform="translate(-529.855 -2.58)" fill="#f9afab"/> <path id="Path_109" data-name="Path 109" d="M1282.55,931.046l37-16.51a10.365,10.365,0,0,0,5.506-5.915l5.363-14.766-18.7,4.585-5.959,12.8a8.779,8.779,0,0,1-11.437,4.364l7.784-23.5a16.029,16.029,0,0,1,7.863-8.568l39.061-19.215,67.382-218.556-51.48-51.219,83.933-64.525,49.083,85.41a43,43,0,0,1,2.215,38.412L1363.955,965.334l-27.032,1.25a8.84,8.84,0,0,1-7.988-4.29l-2.949-4.908-14.22,1.164a8.832,8.832,0,0,1-7.83-3.551l-3.346-4.511-1.994.522A12.167,12.167,0,0,1,1284.759,945l-9.879,3.29A14.112,14.112,0,0,1,1282.55,931.046Z" transform="translate(-724.939 -64.249)" fill="#fcbeb7"/> <path id="Path_110" data-name="Path 110" d="M1411.251,538.07" transform="translate(-1411.251 -26.582)" fill="#fcbeb7"/> </g> </g> </g> </svg>