<?xml version='1.0' encoding='utf-8'?>
<svg xmlns="http://www.w3.org/2000/svg" viewBox="0 0 841.9 595.3"><path d="m419.7 174.4.9 38.7 5.8 8.9 26.9-4.4-9.1-34.5z" fill="#7ac191"/><path d="m199 284.9 44.6-.8 7.6 61.8-49.1 7.2z" fill="#f0e400"/><path d="m427.1 311.2-.8 42.7 73.4 5.1.9-40.6z" fill="#75c5bf"/><path d="m302.7 336.9 78.1-12.3 8.7 41.4-70.2 22.3z" fill="#7bc290"/><path d="m349.5 379.4 8.8-1 3.7 8 89.8-18.3v-5.5h5.7l.5 12.8-71.7 15.5-30 3z" fill="#f0e400"/><path d="m358.3 408.1s.4-.2 1-.4c1.3-.5 3.5-1.3 4-1.3.8 0 4.8 9.2 4.8 9.2l92-16.8v9.5l-84.8 13-12.5 1.5z" fill="#7bc290"/><path d="m546.9 309.9c2.3-1.5 9.5-6.2 9.4-8.2-.4-6.8-1-33.9-1.3-38.1s-1-4.8 2.6-5.7c3.5-.9 6.4-2.3 10-3.9.9-.6 1.8-.4 2.5.3.3.3 42.5 32.1 42.6 32.2 2.2 1.5 30 23 35.1 26.7 3.1 2.3 6.2 4.4 9.4 6.5 2.8 1.8 3.3 3 3 6.2-.4 3.9-.9 40.9-1.4 46-.3 2.6.2 5.6 1.2 7.8 2.3 5.3 7 20.2 8.4 23.8 2.1 5.6 2.7 10.1 4.3 15.8 1.9 6.8 2 13.7 1.3 20.7-.2 2.4-.6 5.3-.8 7.2-.2 2-2.6 1.4-2.8.1s-.2-2.4 0-3.6c1.1-6.8 1-13.5-.2-20.3-.6-3-3-13.3-3.8-16.2-1.7-6-5.3-16.5-7.7-22.3-.2 0-.4 0-.6 0-.2 1.8-.3 15.2-.3 20.2.1 4.1 0 8.3.1 12.4.1 2.3-.4 13.8-.4 17.3 0 1 .8 5-.5 5.3-2.3.5-4.6 1-6.8 1.7-1.5.4-2.9 1.2-4.4 1.7-1.7.6-3.3.4-4.9-.5-2.6-1.6-15.5-12.4-19.4-15.9-2.5-2.2-5.1-4.4-7.7-6.5-.5-.4-1.5-.9-1.6-.8-.5.6-1.1 1.3-1.2 2.1-.3 2.6-2.2 32.1-1.9 34.2.2 2-5.6 7.4-7.4 9.5-.6.7-1.4.3-2.5-.7-.9-.8-1.1-1.5-.2-2.3 1.8-1.6 3.5-3.2 5.3-4.7 1.6-1.2 2-2.8 2-4.6 0-2.9 0-5.8.2-8.7.2-4 1.1-25.7 1-28.5 0-.7-.5-1.6-1.1-2.1-6.1-4.7-12.3-9.3-18.4-14-1.3-1-2.5-2-3.8-3-1-.8-1.5-.7-1.6.6-.2 1.8-.3 3.6-.4 5.5-.3 5.1-1.7 32.8-1.3 34.6.5 2.3-.9 3.9-2.3 4.8-2.2 1.4-5.5 3.6-8.4 3.5-.5 0-1.1-2.3-.7-2.7.6-.5.7-.4 2-1.1 3.9-1.9 5.8-5 6-8.6.2-2.7.5-15.2.6-18.7.3-5.4.6-17.5.7-18.1.4-3.3.4-3.3-2.3-4.9-3.2-1.9-6.4-3.9-9.6-5.7-1.4-.8-2.9-1.4-4.4-1.8-1-.3-2.5-1.2-2.7-2.2-.8-4.5-1.6-22-1.8-26.5-.2-3.3-1.3-42.9-1.7-45.6-.2-1.7-.5-2.3-1.9-1.6-1.9 1.1-13.4 10.2-25 18.4-12 8.5-24.2 16.1-24.2 16.1s.1 16.4.1 23c0 2.1-.8 2.8-3 2.6-7.8-.9-27.4-3.9-29.5-4-1.3-.1-1.9.3-1.8 1.9.2 4.6.2 9.3.4 13.9.1 1.4 0 2.3-1.8 2.5-1.6.2-2 1.5-1.8 3.4.3 3.7.5 7.5.9 11.2.2 1.8-3.8 3.8-4.6 3.8-1.7.1-1.8 1.1-1.7 2.3.2 1.5.5 3 1 4.5.6 1.6-.1 2.2-1.4 2.4-1.7.2-3.5.4-5.2.5-.3 0-13.8 2.1-20.2 3.9-3.6 1-66.4 11.6-68.3 12.3-2.4.9-4.3 0-4.8-2.5-.8-4-3-13.4-3.4-14.2-.4-.9-1.1-1.2-2.1-.9-3.2.7-2.6.5-4.5-2.2s-8.8-14.8-10.2-18.1c-2.3-5.5-2.2-5.6-7.8-4.1-4.4 1.2-10 2.9-12.9 3.5s-4.1.2-4.8-1.9c-1-3.1-12.4-33.7-12.8-35.3-.9-3.1-2.9-9.4-4.2-12.5-1.3-3.2-.1-4 1.3-4.2 2-.2 2.9-.5 4.9-.8 1.9-.2 3.8-.5 5.6-1.1 1.3-.4.7-1.5.2-2.3-1.4-2.4-3.1-4.8-4.4-7.3s-11.4-25.7-14-31.8c-1-2.3-1.7-4.7-3-7 0 1.9-.1 3.8 0 5.7.2 4.7 1.4 19.5 1.7 22.2.1.6.7 7.3-1.2 8-.1.1-2.6.8-7.2 2.1-4.5 1.3-16.6 2.8-22.1 3.5-1.7.2-5.9 1-5.9 1s.1 1.5.5 3.4c.9 3.6.7 6.5 1.6 10.2.4 1.7 1.3 4.7.4 6.3s-2.9 1.7-4.1 1.9c-3.8.8-4.6.3-4.1 4.2.8 5.2 1.5 10.4 2.3 15.6.2 1 .6 2 1 3 .5 1.5.2 2.3-1.1 3.3-1.9 1.4-3.7 2.9-5.6 4.3-.8.6-1.5 1.4-2.3 1.8-.5.3-2.4-1.9-2-2.3 2.1-2 4.3-3.9 6.5-5.7 1.1-.9 1.7-1.8 1.3-3.3-1-4.1-2.1-7.2-3-11.4-.5-2.3-1.2-4.7-1.2-7 0-2-.8-1.7-2.1-1.4-2.6.5-4.4.5-7.1.8-4.3.5-8.7 1-13 1.4-1.2.1-1.7.6-1.5 1.8.8 5 3.1 16.5 3.3 17.2.6 1.4 1.3 1.9-1.3 3.4-2.7 1.5-9.4 5.7-10.9 6.4-.5.2-1.5-1.8-1.1-2.1 1.7-1.2 7.5-4.8 8.5-5.8 1.2-1.3 1.7-3 1.4-4.9-.9-4.6-1.8-9.3-2.7-13.9-.3-1.4-1.2-1.4-2.3-1.3-2.4.3-4.8.6-7.2 1-1.8.3-3.6.7-5.4 1.1-1.6.3-2-.1-2.1-1.8-.5-5.5-1.2-10.9-1.7-16.4-.2-1.5-.4-3-.4-4.6-.1-2.6-.5-3.2-.5-3.2s-12.3.8-16.9 1.1c-2.2.1-2.3 0-2.6-2.2-.6-4.4-1.2-8.8-1.7-13.2-.2-2-1.2-2.1-3.1-3.1-2.8-1.4-5.4-4-7.7-6-4.8-4.3-8.3-9.8-8.5-16.4-.1-4.4.5-8.5 1.7-12.8 1.9-6.5 5.1-14 9.7-19.1.9-1 1-2.7 1-4-.2-5.5-1.8-25.6-2.3-31.3-.1-1.1-.1-3.2 1.2-4.2.9-.7 8.4-4.8 10.7-5 4.3-.3 8.5-.6 12.8-.9.8-.1 10.9.4 15.3.1 5-.3 9.9-.1 14.9 0 6.7.1 33.4-1.6 36-1.9 7.7-.7 15.5-1 23.2-2.6 2.1-.4 4.4 0 6.6.2.9.1 1.7 2.3 1.6 4-.3 3.2-.6 6.4-.8 9.6-.2 5-.1 9.9-.2 14.9-.1 5.1-.5 10.2-.6 15.3-.1 5.7 0 11.4.1 17.1 0 2.2.4 6.6.4 6.6s21.9 49.4 24.3 52.8c.5.7.8 1.6 1.2 2.5.7 1.5 1.6 1.9 2.9 1.6l9.6-2.1c1.9-.4 56.2-8.9 57.1-9.1 1.5-.5 2.3-.1 2.8 1.5s.8 3.3 1.2 4.9c.5 2.1 1.3 2.8 3.3 2.7 2.9-.1 5.8-.2 8.7-.7 7.2-1.1 14.3-2.3 21.4-3.5 2.1-.3 2.1-.3 2.1-2.4 0-3.3 0-6.6-.1-9.9 0-1.4.5-2.2 1.9-2.2s2.9.1 4.3.1c4.6.1 9.3-.1 13.9.2 7 .4 14 1 21 1.8 5.2.6 10.4 1.8 15.4 3.6 3.2 1.1 18.7 2.8 23.1 1.9 1.2-.3 1.9.3 1.9 1.6s0 2.6-.2 3.9c-.7 4.1-1.4 13.7-1.4 13.7s11.8-7 22.3-14.4c8.9-5.8 16.8-12.6 18.6-13.8zm11.1-45.7c.4 10 3.1 99.3 3.5 105 .2 3.3.7 6.7 1.2 10 .1.6.7 1.2 1.2 1.5 2.9 1.8 6 2.4 8.8 4.3 6.9 4.6 27.4 19.5 30.9 22.4 4.2 3.5 39.4 33.9 39.8 34 .5.1 1.1.2 1.5 0 .2-.1-.3-3.2-.3-4.2.1-4.5 1.4-59.3 1.4-64.1 0-5.6-.3-38.5-.5-44.1 0-.8-.4-1.9-1.1-2.4-1.9-1.5-15.5-10.2-20.2-13.3-3.6-2.4-50.7-36.3-53.2-38.3-4.2-3.5-8.4-7.1-13-10.8zm-375-40.6s-5.2 0-7.8-.1c-1.5-.1-1.9.7-1.8 2 .5 4.6 2.5 23.1 2.8 27.8.2 3.4 4.1 40.6 5 46.1.5 3.2 1 6.3 1.4 9.5.1 1 .6 1.5 1.5 1.7 2.3.4 15.9.1 15.9.1s.1.2 0-1.1c-.4-5.2-1.4-17.3-1.5-20.3-.1-2.3.3-3 1.5-3.3.8-.2 1.6-.4 2.5-.4 2.1 0 41.1-3.4 45.6-3.9.4-.2 2.5-.4 3.7.4 1.7 1.1.9 4.2.9 5.2-.1 1.7 2.6 27.9 3.3 33.6.2 1.4.9 3.5.9 3.5s19.6-2.3 23.5-2.9c1.2-.2 1.6-.8 1.5-2.1-.2-4.2-.4-8.5-.5-12.7-.1-3.9-1.7-38.7-1.9-42-.1-2.3 0-12.5 0-15.3-.2-9-.6-18-.8-27.1-.1-2.6-.1-2.7-2.8-2.3-1.8.3-27.3 2.9-30.3 3-7.3.3-22 .6-22.2.6-2.7.1-20-1-26.4-.8-4.7.1-9.3.5-14 .8zm211 143.4c-.4-3-.8-5.6-1.2-8.3-.3-1.6-2.9-17.4-3.9-23.7-.5-2.8-1.3-5.6-2-8.4-.2-.9-.8-1.1-1.7-1-3.6.5-7.3.9-10.9 1.4-3.5.5-26.6 3.6-34.7 4.7-3.7.5-7.3 1.6-11 2.3-4.6.9-9.2 1.7-13.7 2.5-3 .5-6 1.1-9 1.4-1.1.1-1.1.5-.9 1.3.5 2.2.9 4.5 1.5 6.7.3 1.3.7 2.7 1.2 3.9 1.7 4.7 3.4 9.3 5.1 14 1.7 4.5 3.3 9 5 13.4.9 2.6 1.9 5.1 2.8 7.7 0 .1 1 .8 2.5.6 5.6-.9 20.1-4.9 34.5-8.5 14.2-3.5 28.4-6.6 34.7-8.3 1.8-.6 1.7-1.7 1.7-1.7zm108.5-22.1c-.9.4-1.7.9-2.6 1.3-1.2.6-2.3.7-2.5-.7-.3-1.5.3-2.7 2-3.5 2.5-1.1 3.9-2.5 3.9-2.5s-.1-9.8 1.2-13c.6-1.6-.5-2.8-2.2-3-4.9-.4-19.4-1.9-21.4-2.9-4.3-2.3-9-2.9-13.7-3.4-6.1-.7-30-1.8-35.9-1.4-.9.1-1.5.4-1.5 1.4-.1 2.4-.6 32.4-.7 40.3 0 .6.6 1.6 1.1 1.7 2.8.5 18.7 2.1 18.8 2.1 3.1.3 6.2.9 9.3 1 3.8.1 7.6.1 11.4-.2 5.4-.4 25.3 2.8 30 3.2 2.3.2 2.7-.3 2.7-2.5 0-4.4 0-8.9 0-13.3zm-298.7-16.9c.4 4.8 2 19.7 2.3 22.3.2 1.5.8 2.2 2.4 1.9 2.1-.4 11.1-2 13.5-2.2 5.4-.6 27.1-2.8 32.5-3.5 1.6-.2 2.1-.8 1.8-2.4-.3-2.2-4.7-29.1-5.4-34.8-.6-5.1-.7-10.2-1-15.3 0-.1 0-.3 0-.4-.2-2.4-.3-4.7-.7-7.1-.3-1.9-.6-2-2.4-1.8-2.1.2-4.3.3-6.4.4-3.4.1-6.8-.1-10.2.8-6.8 1.7-13.7 2.2-20.6 2.4-2 .1-4.1.6-6.1.8-1.1.1-1.6.6-1.5 1.8.2 6.1.4 12.2.6 18.2 0 1.1.5 1.7 1.7 1.6.8-.1 1.6-.1 2.3.1.6.2 1.5.7 1.5 1 0 .6-.5 2.4-1 2.8s-1.3.4-2 .4c-1.3 0-1.7.4-1.6 1.8zm191.2 29.7c.6 3.3 1.6 6.5 2.3 9.8.1.6-.3 1.9-.8 2.1-3.2 1.3-6.4 2.7-9.7 3.5-5.5 1.4-11.2 2.3-16.8 3.5-1.7.4-3.4 1-5.1 1.5-1 .3-1.4.7-1 1.8.5 1.3 1.1 2.6 1.3 3.9.3 1.6 1.2 1.9 2.6 1.7 3.8-.6 30-5.9 39.3-7.9 8.4-1.8 38.5-7.7 43.3-8.6.8-.2 1.9-.2 1.8-1.3s-.1-2.5-1.5-2.8c-2.7-.6-18.5-1.7-20.1-1.7-3 0-3.3-.3-3.7-3.4-.1-.8-.4-26.3-.5-28.2 0-1.6-.4-2-1.8-1.8-5.1.8-25.6 3.8-30.8 4.3-1.5.2-2 .6-1.8 2.1zm260.2-34.8c-2.4-1.9-4.3-3.4-6.3-5-3.4-2.7-21.6-16.6-27.2-20.9-3.9-3-18.1-13.1-21.3-15.3-3.9-2.7-23.8-17.4-28.2-20.8-1-.8-1.8-1.7-2.9-2.2-.8-.4-2-.4-2.7-.1-1.8.8-4.1.9-5.8 1.9-.9.6-1.4 1.1-.5 1.8 2.2 1.6 5.6 4.2 7.7 5.9 3.1 2.6 6 5.4 9.2 7.8 3.4 2.6 6.9 5 10.4 7.5 0 0 .1 0 .1.1 5.4 3.8 10.9 7.5 16.4 11.2 0 0 .1.1.1.1 2 1.4 4 2.7 6 4.1 3.3 2.3 6.6 4.6 10 6.9 4.4 3.1 8.8 6.3 13.2 9.3 3.3 2.3 6.8 4.4 10.2 6.6.5.3 1 .7 1.6.9 3 1 6.2.9 10 .2zm1.1 50.1c.3-1.1.6-28.9.6-34.7 0-3.9.1-7.8.1-11.7 0-1.1-.1-1.7-1.6-1.4-1.6.4-3.3.4-5 .6-2.1.3-2.2.5-2.1 2.6.1 2.4.7 43.9.7 47.5 0 .1-1.7 55.3-1.6 60.2.1 3.8-.4 3.4 3.6 2.6 1.8-.4 4.2-.8 4.2-2.4 0-1.7-.1-20.3-.2-24.2 0-2.4.7-33 .7-33s-3.2-5.4-4.6-7.6c-.1-.2-.2-.4-.3-.6-.7-1-.8-2.1.2-2.9 1.1-.8 2.1-.1 2.8.7 1 1.1 1.4 2.8 2.5 4.3zm-294.7 21c.9-.1 1.3-.1 1.8-.2 6-.8 42-6.9 45.8-7.7 3.1-.6 19.7-4 22.7-4.6 21.2-4.1 19.7-5.1 23-6.3 1.4-.5 2.8-.8 4.1-1.4.6-.2 1.4-.9 1.3-1.4-.2-2-.6-4-1-6-.3-1.3-1.4-1.3-2.4-1-1.1.3-1.3 1.1-1 2.2.6 3 .1 3.7-2.9 4.2-.6.1-7.4.8-10.2 1.3s-12.5 2.6-14.5 3c-7.7 1.7-15.5 3.4-23.2 5.2-3.9.9-7.7 2-11.6 2.8-4.8 1-9.7 1.9-14.6 2.7-4.1.7-8.4 1-12.5 1.8-1.7.4-2.6.1-3.2-1.4-.9-2.3-1.9-4.5-2.9-6.7-.2-.5-.9-1.2-1.3-1.2-1.5.1-3 .5-4.5.8-1.2.2-1.5.8-1.1 2.1 1 3.5 2.7 6.6 4.7 9.6 1 1.4 2.1 2.5 3.5 2.2zm12.9 23c-.9.2-1.8.5-2.6.9-1.9.9-2.2.8-3.1-1.2-.9-2.3-1.7-4.6-2.4-6.9-.3-.9-.9-1.3-1.7-1-.3.1-.5 1-.5 1.4.4 3.4.9 6.8 1.4 10.2.4 2.5.7 2.6 4.1 2.7.7-.2 84.1-13.4 88-15.6.5-.3 1.2-.6 1.4-1 1-2.5-.8-4.7-3.4-4.2-4.5.8-81.2 14.7-81.2 14.7zm-85.6-149.4c0-2-.6-6.9-.6-9.1.1-5.3 2.3-45.8 2.1-46.3-.4.2-1.8 1.1-2.1 1.4-1.1.9-2.2 1.9-3.4 2.7-2.5 1.7-3.6 3.9-3.5 7 .2 4.4.3 17.7.4 17.8.1 3.2 2.8 67.5 3 73.7 0 1.1.4 2.2.7 3.3 1.1-.3 2.3-.5 3.3-1.1.5-.3.9-1.1 1-1.8.1-.8.1-1.7-.1-2.5-1.1-4.6-1.5-30.9-1.5-34.2 0-2.4-3.6-11-3.9-12.9-.2-.9.3-1.8 1.4-2.4s2.1 3.7 3.2 4.4zm-114.2-47.6c1 .2 2.3.6 3 .6 3.8.1 29.4-1.3 35.2-.5 1.7.2 11.1.3 14.2.3 4.5 0 37.6-2.4 42.5-2.9 2.7-.3 5.3-.3 8-.5 3.7-.3 7.3-3.5 9.9-6-1.7-.1-5.2.8-6.8 1-2.9.3-36.9 2.5-41.3 2.5-3.4 0-27.2.7-30.7.8-3 .1-22.3-.3-25.2.2-2.8.3-6.7 1.6-8.8 4.5zm290.8 144.9c-2.5 0-2.7.3-2.3 2.6.3 1.7.5 3.3.6 5 .4 3.9-.7 5-4.6 5.4-1.7.1-13.4 4.4-28.3 6.9-7.3 1.5-47.4 9.9-54.6 10.2-1.5.1-1.8 1-1.5 3 .2 1.3.9 1.5 2.1 1.3 2.2-.4 31.1-5.6 36.3-6.7 4.4-.9 49.8-10.9 53.7-12 1.5-.4 2-1.4 1.8-2.9-.5-3.5-.7-7-1.1-10.5-.1-2.3-.1-2.3-2.1-2.3zm-286.6-56.6c0-1.3.1-2.4 0-3.4-.7-4.8-5.4-33.7-5.6-41 0-.4-.3-.8-.4-1.2-.4.2-5.9 9.6-7.1 14.8-.9 3.6-1.3 7.2-1 11 .5 5.9 2.7 10.2 6.8 14.3 2.1 2.2 4.3 4.1 7.3 5.5zm196.4 95.1v.8c.7 0 21.6-.6 25.8-1.1 6.8-.8 40.4-6.3 50.4-7.9 1.4-.2 2.3-1 2.2-2.5-.1-1.4-.3-2.9-.5-4.3-.1-.9-.6-1.3-1.6-1-3.3.9-19.2 4.7-23.8 5.7-3.8.8-32 6.8-37.2 7.3-2.7.3-12.8 2.5-15.3 3zm52.3 1.1c6.4-1 30.7-5.4 36.5-6.5 1.2-.2 1.6-1.1 1.5-2.2-.3-3-.6-6.1-.9-9.1-.1-1.3-.8-1.9-2.2-1.7-1.3.3-2.7.5-4.1.7-1.9.3-2.2.7-1.8 2.6.3 1.5.6 3 .8 4.5.3 2.5-.3 3.5-2.6 4.4-1.1.4-38.3 6.2-45 7.2-2.7.4-5.4 1.2-8.1 1.4-7.9.6-26.9 1.5-28.6 1.6-2.1.1-2.9 1-2.6 3.1.1.7.3 1.3.6 2 .4 1.1 1.4 1.5 2.4 1.4 2.2-.4 46.8-8.3 54.1-9.4zm-56.8-6.1c.1-2.3.1-2.3-2.2-2-.8.1-7 1.3-9.2 1.8-1 .2-1.7.1-2.2-1-2.2-4.6-4.4-9.1-6.7-13.5-1-1.9-2.8-2.2-5.5-.7-1.9 1 5.5 14.6 9.4 19 .9 1 1.8 2.1 2.9 2.8 3 2 6.2.7 9.3.1.7-.1 5-.9 4.7-3.1-.1-1.1-.3-2.2-.5-3.4zm-170.4-83.1c-.1-1.1-3.1.2-9.2 0-6.2-.2-8.3-.7-8.3-.7.1 3.5 1 12.9 2 13 4.1.3 16.1-1.4 16.1-1.4z" fill-rule="evenodd"/><path d="m511.9 117.6c0-1.1.7-3.1 0-3.8s-1.8-1.1-3-1.1c-.4 0-11 .2-12.4.3-1.9.1-37.7-.4-40.1-.5-1.4 0-26.4.2-28.3.2-1 0-2 .1-2.6.6-1.5 1.1-3.8 3.4-5 4.5-.4.4-.7 1.1-.6 1.6.2 1.5.3 2.9.4 4.4.3 3.4 2.7 26.2 3.3 31 .1.8 0 1.2-.6 1.5-2.4 1.2-5.2 5.1-7.9 8.4s-5.3 10.4-5.7 12c-1.1 5.1.9 14.1 1.2 14.7 1 2.5 2.2 5.1 4.9 6.6.5.3.8.7.9 1.5.4 3.2 1 6.5 1.6 9.9.3 1.6 1.5 5.8 1.5 5.8 1 3.6 2.5 7 4.3 10.1.3.5 1.2.7 1.7.6 1.4-.3 18.6-4.6 19.4-4.9.3-.1.6.1.4.3 0 0 0 .1-.1.1-.8 1.4-6.4 12.4-6.5 12.5-.6 1.2-2.8 5.5-3.6 6.9-.5.8-.9.9-1.6.5-.4-.3-4.8-2.2-5.3-1.5-.2.3-.3.7-.2 1.1.1.6.6 1.1 1.4 1.4 1.9.9 6.6 2.8 6.8 2.8 1 0 1.3-.9 1.5-1.6.4-1.5 8.5-19.1 11.7-23.6.3-.4.5-.6.7-.7.7-.2 7.4-2.2 8.1-2.9.7-.8-3.3-6.8-3.3-6.9s.3-.2 1-.3c1-.1 16.3-1.3 17-1.4.5-.1.9 0 1.1.7.1.4 4.2 13.3 4.2 13.3.6 1.4 5.2 15.1 5.4 15.5.5 1.3 1.7 1.5 2.7.5.2-.2 11.4-8 14.3-9.1.4-.1.8-.2 1-.2.6 0 1 .3 1.6 1.4.5.9 1.1 1.8 1.7 2.7l.1.2c.6.9 1.4 1.1 2 .5s-.9-3.5-1.2-4-1.6-2.8-1.9-3.3c-.5-.8-.9-1.1-1.5-1.1-.3 0-.7.1-1.2.4-.4.2-14.9 8-15.1 8s-1.2-2.3-1.7-2.9c-1.2-1.9-7-20.9-7.2-21.7-.2-.5-.3-1-.2-1.2s18.3-1.5 19-1.5c2.5 0 5.3-.1 8-.4.5-.1 4.8-3 5.8-3.6 1.3-.7 1.5-1.7 1.5-2.9-.1-3.3-.2-15.5-.2-16.4.1-2 .4-38.9.4-40.7-.2-5 .3-23.3.4-24.3zm-41.1 2.6h13.9.1c1.8 0 17.8.3 18.1.3.8.1 1.2.5 1.2 1.4 0 0-.3 9.9-.3 10.7-.1 1.4-.6 21.9-.8 24.3v3.7s-.5 1.3-2.7 3.6c-1.3 1.3-12.3 12.4-16.2 15.3-8.5 6.3-14.7 8.6-17.9 10.2-2.9 1.4-12.6 3.7-14.4 4.1 0 0-1.9.4-2.1.4-.4 0-.6-.1-.8-1.3-.1-1.1-.5-7.8-.6-8.8-.1-1.2-1.3-2.4-2.5-2.6-.4-.1-3.5-.5-4.6-.7-3.7-.9-11.1-3.5-11.7-4.2-.5-.7-.7-1.8-.8-2.7v-.1c-.4-2.8-3.7-28.3-4-33.2 0 0-2.5-19.7-2.3-20.4.3-.7 46.9 0 48.4 0zm34.4 44c.3-.5 1.6-2.7 2.2-3.9.7-1.4 1.5-3.6 1.6-3.8 0 .2-.9 41.1-1 42.9 0 .4-.3.9-.6 1.1-.9.6-3.4 1.8-3.5 1.8-.3 0-.4-.5-.4-.7v-.1c.1-1.8 1.6-37.1 1.7-37.3zm-79.1 11.2c-.5-.2-1-.4-1.5-.6-1.1-.6-2.2-1.2-3.2-1.9l-.2-.1c-.4-.3-.8-.4-1.2-.4s-1.2.2-1.4 1.5c-.3 1.8-.5 3.7-.7 5.5-.1 1.1-.3 2.3-.4 3.4-.1.6-.2 1.2-.3 1.8-.1.9-.3 1.7-.4 2.6-.2 1.6-.3 3.1-.4 4.7-.1.8-.1 1.5-.2 2.3 0 .1 0 .3-.1.5-1-.6-1.6-1.3-2-2.1-2.1-4.5-3.1-9.8-2.2-15.7.7-4.1 2.8-8.5 5.9-12.1 1.3-1.6 3.9-4 6-5.4l2.7 16.1c-.1 0-.3-.1-.4-.1zm-7.1 24.2c.1-.1.4-.2.7-.1.6.1 1.4.1 2.1-.1.4-.1.9-.5 1-1 .1-.4-.3-1-.7-1.2s-1.6-.4-1.8-.5c-1.3-.3-1.5-.5-1.4-1.8.1-1.8 1.2-16.8 1.3-17.7.1-1.1.2-1.2.4-1.2.3 0 6.3 3.2 8 3.9 2 .8 15 4.9 15.8 5.1.7.2 1.1.4 1.1 1 .1 1.4.6 6.4.7 7.6 0 .2 0 .3-.1.4s-5.4-.2-5.6-.1c-.4.2-.9.7-.9 1.2 0 .4.6 1 1.1 1 .6.1 4 .2 4.5.3 1.7.3 1.7.3 2 1.9.7 3.2 1.5 6.7 3.3 9.9.8 1.4 4.3 6.3 4.3 6.5-.1.2-.3.3-.9.5-3.2 1-6.7 2.2-11.1 3.7 0 0-4.4 1.5-6.7 1.6-1.2 0-9.6 1.8-9.7 1.8-.6.1-.9-.2-1.3-.9-2.2-3.9-3.4-8.1-4.5-12.2-.5-2.1-1.4-8.3-1.6-9.1-.1-.1-.1-.4 0-.5zm33.4 6c-1-2.6-2.8-8.7-2.7-8.8.1-.2.4-.4.8-.4 11.4-1.2 23.7-6.7 31.9-12.1s17.3-15 18.2-15.8c.5-.5 1.8-1.7 1.8-1.7s.6-.6.6-.6c.1.1-.3 5.8-.3 5.8l-1.7 28.9c-.1 1.9-.4 2.2-2.2 2.3-1.3.1-41.2 3.3-45.2 3.4-.4-.1-1.1-.6-1.2-1zm56.5-54.3v.5c-.5-.1-.8-.1-1.1-.1-.9 0-2.1 5-2.4 5.9-.1-.5.6-27.1.7-30.9.1-1.8.2-3.6.4-5.6 0-.4.3-.8.6-1.2.4-.5 1.8-1.4 2.1-1.5h.1s0 .1.1.1c.1.2.2.4.2.6-.2.5-.7 31.6-.7 32.2zm-2.2-34.1c-1.2 1-3.1 1.2-4.7 1s-17.8 0-17.8 0c-1.7 0-17.7-.4-18.8-.4-2.2 0-22.4-.3-24.6-.3 0 0-12.9.3-15 .4 0 0-2.1 0-2.3-.1h-.1v-.1c.3-.1 3-2.5 3.8-2.7 2.8-.7 67.6-.4 77.3-.2 2.3 0 4.6.4 4.8.5.7.5-2.4 1.6-2.6 1.9z"/><path d="m618.3 328.3c-.1-.9-1.6-2.4-2.4-2.3-1.6.1-2.7 1.2-2.6 2.6.1 1.2 1.4 2.4 2.6 2.4 1.1 0 2.4-1.5 2.4-2.7z" fill="none"/><g fill-rule="evenodd"><path d="m583.8 352.5c-.4 1.5-.4 2.5 1.8 3.2 2.2.6 8.7 3.7 13.2 5.1 3.5 1.1 7.4 2.5 10.8 3.6 1.1.4 1.9-2.4 2-3 .2-.8.5-1.9 1.6-1.4.9.3 1.7 1 1.2 2.3-.4 1.2-.7 5.5-1.8 6.1-1.2.6-2.1 0-3.2-.6-1.9-1.1-25.5-9.4-28.2-10.7-1.5-.8-1.7-1.8-1.2-3.6.1-.5.2-1.1.3-1.6.2-1.1.5-2.4 2.1-2.1 1.7.2 1.6 1.4 1.4 2.7z"/><path d="m618.3 328.3c.1 1.2-1.2 2.6-2.4 2.6s-2.6-1.2-2.6-2.4c-.1-1.4 1-2.5 2.6-2.6.8 0 2.3 1.5 2.4 2.4z"/><path d="m230.7 278c-.5-.5-1.6-1-1.8-1.8-.3-1.4 1-1.7 2.1-1.8 4.1-.3 8.2-.7 12.3-.9 1.3-.1 2.2-.1 2.2-1.8 0-.6.1-1.6 1.2-1.7s.8 1.1 1.1 1.7c.1.3.1.6.2.9.7 2.2.2 3-2.1 3.3-3.8.5-7.6.9-11.3 1.4-1.1.1-2.3.4-3.9.7z"/><path d="m245.9 255.9c.4 1.1-1.4 2.8-2.6 2.8-.7 0-1.9-1.8-1.9-2.7s1.3-2.2 2.5-2.2c1.1 0 1.6 1 2 2.1z"/><path d="m208.5 256.3c.7.9-.9 3.1-2.1 2.9-.9-.2-2-.4-2-1.8 0-1.1 1.4-2.1 2.9-2 .5.1.5 0 1.2.9z"/><path d="m716.1 221c-2.5-.1-43.4-1.2-50-1.3-5.9-.1-94.8-3.1-99.8-3.6-1.6-.2-13.7-.7-14.1-.5s-1 .7-1 1c0 .5.4 1.2.7 1.5.4.3 75.8 2.4 80.2 2.5 3.8.1 7.6.3 11.4.4 7.1.2 63 1.4 68.4 1.5 1.4 0 1.5.1 4.3.1s2.4-1.5-.1-1.6z"/><path d="m320.1 216.8c8.2.1 36 .1 41.8-.1 3.7-.1 32.3-.2 34.9-.2.9 0 1.5 2.3.4 2.7-.5.2-17.2.2-20.1.3-6.4.3-61.8-.5-64.9-.6-7.1-.3 1.4-2.2 7.9-2.1z"/><path d="m544 206.6c-4.5 1.3-7.6 3.5-11.6 5.6-2.7 1.4-5.2 3.6-7.4 5.4-.3.2-.5.7-.8.8-.4.2-1.6-2-1.3-2.3 1.4-1.2 6.1-5.3 8.2-6.8 5.3-3.6 9.1-4.2 12.6-5.6.2 0 .6 2.8.3 2.9z"/><path d="m530.8 195.3c.2-.2-2.1-.9-2.3-.7-1.6 1.5-3.4 2.9-4.6 4.6-2.5 3.6-4.3 6.9-6.2 10.2-.8 1.3-1.5 2.7-2.1 4.1-.4.8 1.1 1.7 2.1 1.7 0-.1.3-.3.4-.6 0 0 3.9-7.2 6.4-10.6 2.6-3.5 6.3-8.7 6.3-8.7z"/><path d="m581.7 306c.6 1.5-1.5 3.2-2.6 2.9s-2-.9-2-2.7c-.1-1.8.3-2.6 2-2.6 1.6 0 2 .9 2.6 2.4z"/></g><path d="m478.1 161.1c-1.5-.2-13.6.3-13.6.3-2 .1-10.4.1-12.3.1-1.5 0-3-.1-4.5-.1-.7 0-.9-.2-1-.9-.1-.6-.4-1.3-.7-1.7-.2-.3-.6-.5-.8-.5-.3 0-.8.2-.9.9-.2 1.1-.3 2.4.3 3.6.5.8 1 1.2 1.8 1.2h.5c.7-.1 11.2 0 13.5 0 2.9 0 19-.4 19.7-.4 1.1 0 2.3.1 3.4 0 .7 0 1.4-.3 1.8-.6.9-.8 1-4.3.3-5.2-.3-.4-.9-.5-1.2-.5s-.5.4-.7.9c-.1.2.1 2.2-.1 2.5z"/><path d="m481.5 136c1.2-.1 1.4.7 1.6 1.4.3.8-.6 1.8-1.5 1.9-.7.1-1.7-1-1.5-1.9.2-.6.1-1.3 1.4-1.4z" fill-rule="evenodd"/><path d="m442.9 136.1c1-.4 2 .8 1.8 1.6-.1.5-.8 1.2-1.4 1.3-.8.3-1.8-.6-1.5-1.5.1-.6.1-1 1.1-1.4z" fill-rule="evenodd"/></svg>