<svg xmlns="http://www.w3.org/2000/svg" viewBox="0 0 581 423" width="581" height="423">
	<style>
		tspan { white-space:pre }
		.shp0 { fill: #bdb5b1 } 
		.shp1 { fill: #bf3300 } 
		.shp2 { fill: #ffc1a9 } 
		.shp3 { fill: #4f7455 } 
		.shp4 { fill: #496f4f } 
		.shp5 { fill: #abefb6 } 
		.shp6 { fill: #5b5958 } 
		.shp7 { fill: #000000 } 
	</style>
	<g id="layer1">
		<g id="Layer">
			<path id="Layer" class="shp0" d="M305.56 0.15C306.94 -0.01 304.99 0.16 302.91 0.29C299.14 0.59 298.34 0.93 300.52 1.28C301.5 1.46 306.25 3.23 307.6 3.92C308.97 4.64 311.88 4.95 313.56 4.56C316.12 3.96 316.67 3.99 320.38 3.57C320.7 3.56 323.7 3.83 324.97 3.97C326.24 4.11 329.63 4.63 332.5 5.14C337.26 5.93 340.33 6.39 352.23 8.07C354.48 8.39 359.24 9.08 362.83 9.64C369.97 10.75 379.69 12.2 384.52 12.9C386.22 13.13 389.61 13.65 392.02 14.06C394.44 14.44 398.77 15.08 401.64 15.45C404.51 15.83 407.97 16.32 409.31 16.59C414.89 17.59 419.13 18.27 422.52 18.66C424.51 18.92 428.39 19.5 431.16 19.97C433.93 20.44 436.97 20.91 437.85 20.99C438.76 21.07 442.28 21.6 445.67 22.15C449.1 22.71 453.05 23.29 454.48 23.46C455.91 23.63 459.44 24.15 462.31 24.62C465.18 25.09 469.87 25.82 472.74 26.23C475.61 26.63 481.78 27.56 486.44 28.26C491.11 28.96 496.39 29.74 498.18 30C499.98 30.27 503.86 30.85 506.83 31.31C509.79 31.78 514.72 32.51 517.75 32.91C520.82 33.34 524.34 33.87 525.58 34.1C526.85 34.34 529.79 34.81 532.1 35.13C534.45 35.41 537.51 35.88 538.95 36.11C540.39 36.35 543.48 36.84 545.8 37.16C548.15 37.51 550.79 37.89 551.67 38.03C552.58 38.15 554.25 38.41 555.42 38.58C556.59 38.76 558.42 39.02 559.5 39.19C560.57 39.34 562.2 39.6 563.08 39.72C564 39.86 566.25 40.18 568.07 40.47C569.93 40.73 571.5 40.9 571.56 40.83C571.66 40.77 571.62 40.41 571.51 40.02C571.34 39.5 570.98 39.32 569.81 39.17C568.96 39.06 565.93 38.59 563.06 38.12C560.18 37.62 547.79 35.73 535.5 33.9C523.2 32.1 501.06 28.75 486.25 26.48C471.44 24.2 451.64 21.17 442.22 19.74C396.23 12.72 372.74 9.14 355.78 6.54C346.91 5.17 337.52 3.75 334.91 3.34C321.18 1.17 313.33 0.38 311.65 0.63L311.65 0.63L305.56 0.15Z" />
		</g>
		<g id="Layer">
			<path id="Layer" class="shp0" d="M297.16 2.25C297.14 2.84 296.99 5.6 296.78 8.37C296.57 11.14 296.2 15.9 295.99 18.96C295.78 21.99 295.54 25.02 295.49 25.63C295.4 26.25 295.28 28.24 295.21 30.03C295.08 33.38 295.02 33.94 294.6 39.47C294.43 41.27 294.15 45.21 293.91 48.27C293.67 51.3 293.33 55.99 293.12 58.69C292.9 61.36 292.67 64.68 292.6 66.02C292.49 67.36 292.39 68.82 292.33 69.28C292.27 69.73 292.17 71.2 292.06 72.53C291.99 73.87 291.75 77.16 291.54 79.86C291.33 82.53 290.99 87.16 290.75 90.12C290.54 93.09 290.22 97.09 290.09 99.08C289.93 101.03 289.75 103.38 289.7 104.29C289.62 105.17 289.41 108.2 289.2 110.97C288.99 113.74 288.72 116.9 288.67 117.97C288.59 119.05 288.27 122.99 287.98 126.77C287.69 130.51 287.28 136.54 287.08 140.12C286.85 143.7 286.57 147.87 286.43 149.4C286.3 150.93 286.14 153.11 286.07 154.29C285.99 155.46 285.75 158.75 285.51 161.61C284.88 169.89 283.93 182.59 283.67 186.37C283.63 187.25 283.44 189.46 283.31 191.25C283.14 193.05 282.86 196.99 282.62 200.05C282.38 203.08 282.04 207.77 281.83 210.47C281.61 213.14 281.38 216.46 281.31 217.8C281.2 219.13 281.1 220.6 281.04 221.06C280.93 222.03 280.72 224.9 280.51 228.06C280.44 229.3 280.3 230.86 280.25 231.48C280.1 232.59 279.92 235.1 278.81 251.09C278.52 255.16 278.14 259.17 277.96 260.05C277.57 262.01 276.91 268.91 276.73 273.11C276.64 275.62 275.42 291.03 274.63 299.89C274.55 300.7 274.31 304.06 274.11 307.38C273.91 310.7 273.54 315.45 273.33 317.96C273.11 320.47 272.77 325.23 272.54 328.55C272.3 331.87 271.83 338.16 271.49 342.55C270.39 355.88 270.28 359.13 270.71 363.16C271.26 368.06 272.18 370.48 274.33 372.75C275.29 373.71 276.88 374.99 277.86 375.55C279.64 376.6 283.96 378.44 285.63 378.93C286.38 379.11 286.35 379.08 285.36 378.25C282.32 375.77 281.65 371.03 282.86 360.57C283.09 358.68 283.39 355.16 283.54 352.75C283.69 350.34 283.87 347.6 283.92 346.72C284 345.81 284.53 339.17 285.12 331.9C285.71 324.64 286.24 318.06 286.32 317.24C286.41 316.43 286.74 311.32 287.1 305.85C287.61 297.84 289.38 274.87 290 268.06C290.09 267.25 290.42 262.14 290.78 256.66C291.14 251.19 291.9 241 292.49 234.03C293.05 227.02 293.76 217.87 294.08 213.67C294.96 201.03 295.64 191.46 295.81 189.89C295.86 189.08 296.47 181.81 297.11 173.77C297.78 165.69 298.37 158.36 298.45 157.48C298.67 155.04 299.32 145.85 299.75 139.08C300.11 133.54 300.53 128.1 302 109.93C302.29 106.34 302.81 99.02 303.17 93.64C303.66 86.22 306.63 48.6 307.69 36.48C307.74 35.66 307.97 32.15 308.2 28.66C308.72 19.8 309.1 15.11 309.38 13.03C309.53 12.05 309.69 9.96 309.79 8.4L309.94 5.6L308.69 5.23C308.01 5.02 307.32 4.74 307.12 4.61C306.96 4.48 305.84 4.08 304.66 3.68C303.49 3.28 302.18 2.75 301.72 2.53C301.26 2.31 300.6 2.12 300.25 2.13C299.89 2.1 299.23 1.92 298.77 1.67C297.49 0.98 297.14 1.11 297.16 2.25Z" />
		</g>
		<g id="Layer">
			<path id="Layer" class="shp0" d="M316.72 4.83C315.75 4.98 313.96 5.24 312.76 5.36L310.55 5.59L310.59 7.83C310.61 9.04 310.43 11.64 310.21 13.57C309.98 15.49 309.64 19.95 309.41 23.44C309.21 26.92 308.98 30.5 308.9 31.41C308.85 32.29 308.72 33.99 308.64 35.16C308.56 36.33 307.66 47.6 306.64 60.24C305.6 72.88 304.72 83.92 304.64 84.83C304.59 85.71 304.28 90.05 304 94.44C303.72 98.84 303.39 103.89 303.22 105.68C303.01 108.25 301.81 123.3 300.96 134.02C300.88 134.9 300.6 139.23 300.32 143.62C299.91 150.01 298.48 168.21 295.94 199.16C295.89 200.04 295.57 204.37 295.29 208.77C294.86 215.28 293.06 238.6 292.52 244.6C292.43 245.41 292.1 250.53 291.74 256C291.38 261.47 290.67 270.91 290.16 277C289.2 288.7 288.31 300.65 288.06 305.02C287.78 309.64 287.15 318.14 286.35 327.98C285.89 333.26 285.5 338.4 285.42 339.38C285.34 340.36 285.2 341.82 285.15 342.64C284.93 345.24 284.75 347.59 284.37 353.55C284.13 356.77 283.84 360.29 283.69 361.37C283.52 362.44 283.34 365.31 283.25 367.72C283.08 374.62 284.06 376.84 288.3 379.04C290.3 380.05 290.5 380.08 293.78 379.99C297.23 379.89 299.2 379.5 308.85 377.02C316.43 375.06 328.71 372.57 336.08 371.5C346.88 369.9 348.57 369.52 370.74 363.4C376.08 361.9 383.23 359.96 386.6 359.02C392.69 357.35 402.14 354.84 412.82 352.08C415.87 351.31 420.89 349.95 423.99 349.08C427.1 348.22 433.32 346.51 437.75 345.29C442.22 344.08 448.76 342.27 452.32 341.29C455.88 340.32 461.06 338.99 463.81 338.33C466.56 337.66 471.1 336.51 473.85 335.71C476.6 334.94 480.39 333.93 482.26 333.44C493.14 330.58 504.15 327.56 504.37 327.39C504.5 327.26 504.21 325.7 503.76 323.92C503.27 322.17 502.15 317.8 501.25 314.24C500.37 310.68 499.11 305.79 498.48 303.39C497.12 298.31 491.07 279.75 486.44 266.53C483.08 256.86 480.34 248.74 476.49 237.1C474.43 230.83 470.03 217.96 463.18 198.14L460.71 191.03L460.64 187.19C460.58 183.88 460.67 183.29 461.15 182.89C461.44 182.66 463.77 182.03 466.26 181.5L470.83 180.54L476.41 181.32C489.52 183.14 498.53 185.15 503.09 187.25C505.78 188.51 508.56 191.19 509.97 193.93C511.29 196.44 512.51 199.38 516.62 209.46C518.39 213.78 520.7 219.4 521.76 221.99C522.81 224.57 524.44 228.54 525.4 230.87C526.35 233.16 528.83 239.13 530.93 244.11C534.91 253.53 535.86 255.86 544.5 277.2L545.21 278.98L545.68 274.09C546.47 265.59 548.11 251.28 548.69 247.47C549.01 245.44 549.38 242.31 549.57 240.52C549.74 238.73 550.07 235.57 550.29 233.52C550.8 228.98 550.8 228.85 551.52 222.11C551.83 219.14 552.27 214.97 552.5 212.82C552.75 210.67 553 208.39 553.06 207.77C553.56 202.95 553.84 200.63 554.34 197.5C554.66 195.51 555.28 190.33 555.76 185.93C556.23 181.53 556.85 175.73 557.16 173.05C557.43 170.35 557.94 165.59 558.27 162.46C558.85 156.83 559.76 149.26 560.79 141.28C561.11 139.03 561.42 136.32 561.53 135.24C561.61 134.17 561.8 132.35 561.94 131.17C562.09 130 562.39 127.23 562.61 124.98C563.55 115.63 565.35 99.66 565.59 98.29C565.74 97.47 566.08 94.8 566.3 92.39C566.79 87.47 567.67 79.97 568.1 76.74C568.27 75.57 568.64 72.05 568.97 68.92C569.27 65.79 569.97 59.47 570.51 54.9C571.08 50.34 571.61 45.58 571.79 44.31C571.93 43.07 572.01 42 571.94 41.97C571.84 41.87 562.45 40.41 558.04 39.81C556.35 39.58 554.59 39.35 550.05 38.65C548.98 38.5 547.22 38.24 546.11 38.13C545.03 37.99 541.58 37.46 538.44 36.97C535.31 36.47 530.58 35.74 527.88 35.33C525.2 34.92 521.39 34.34 519.4 34.02C517.44 33.73 515.03 33.41 514.05 33.3C513.1 33.19 510.46 32.78 508.18 32.4C505.93 32.01 502.01 31.43 499.5 31.09C496.99 30.77 493.86 30.31 492.56 30.07C491.25 29.83 487.89 29.31 485.05 28.94C482.25 28.56 477.36 27.84 474.23 27.34C464.02 25.73 455.21 24.42 451.89 24C450.09 23.77 447.16 23.33 445.36 23.01C443.57 22.68 440.89 22.27 439.39 22.1C437.93 21.93 435.58 21.62 434.18 21.38C426.45 20.12 424.16 19.77 420.9 19.34C418.95 19.08 414.31 18.35 410.63 17.73C406.94 17.12 403.13 16.53 402.15 16.42C401.17 16.34 398.01 15.88 395.14 15.41C390.28 14.62 387.89 14.27 384.21 13.81C383.43 13.7 380.98 13.32 378.83 12.93C376.67 12.55 373.74 12.11 372.31 11.94C370.87 11.77 366.76 11.16 363.17 10.61C356.03 9.5 346.34 8.04 341.49 7.38C339.79 7.15 335.97 6.57 333.01 6.07C321.98 4.31 320.32 4.18 316.72 4.83Z" />
		</g>
		<g id="Layer">
			<path id="Layer" class="shp1" d="M145 63.08C144.55 63.25 143.48 63.79 142.58 64.29C136.63 67.81 134.5 68.66 129.7 69.56C126.91 70.07 125.26 70.85 120.34 73.96C111.46 79.58 105.68 85.15 99.94 93.54C97.27 97.46 97.12 98.05 96.93 105.76C96.84 109.5 96.87 114.94 97.02 117.8C97.17 120.66 97.31 123.48 97.32 124.07C97.34 125.11 97.34 125.11 98.64 124.89C101.46 124.39 105.3 126.4 107.64 129.61C108.37 130.64 109.5 132.18 110.07 132.98C111.07 134.33 113.07 138.78 114.24 142.28L114.68 143.63L115.62 143.13C116.26 142.76 116.48 142.46 116.35 142.04C116.04 141.11 115.17 138.13 114.37 135.05C113.74 132.72 113.55 131.26 113.49 127.75C113.32 114.45 113.62 112.92 117.71 107.18C118.7 105.83 119.65 104.35 119.83 103.89C119.99 103.43 120.11 101.32 120.11 99.17C120.07 95.46 120.13 95.2 120.96 93.82C122.09 92.04 128.2 85.89 129.65 85.11C131.39 84.17 135.09 83.68 141.66 83.53C151.05 83.33 155.94 83.73 160.22 85.15C161.5 85.59 163.53 86.04 164.8 86.21C168.35 86.64 170.03 87.55 173.37 90.87C174.99 92.47 176.72 94.46 177.22 95.29L178.13 96.77L178.27 95.67C178.47 94.13 178.65 91.53 178.85 87.88C179.12 81.24 176.92 76.47 171.51 72.07C167.38 68.76 156.89 63.88 152.38 63.14C149.32 62.68 146.39 62.66 145 63.08Z" />
		</g>
		<g id="Layer">
			<path id="Layer" class="shp2" d="M139.72 84.22C132.96 84.96 131.15 85.28 129.99 85.89C128.57 86.66 122.4 93.01 121.59 94.56C121.18 95.31 121.04 96.71 120.96 99.84L120.88 104.13L119.29 106.47C118.44 107.76 117.33 109.37 116.85 110.06C115.46 112.04 114.81 114.33 114.49 118.3C114.05 124.32 113.99 130.31 114.37 131.57C114.55 132.25 114.93 133.71 115.24 134.88C115.52 136.04 116.08 137.98 116.46 139.24C117.46 142.61 117.41 143.03 115.83 144.1C115.12 144.6 114.41 144.88 114.28 144.75C114.15 144.62 113.47 142.91 112.78 140.97C110.8 135.44 108.22 131.13 105.17 128.19C102.79 125.89 99.23 125.04 97.66 126.37C96.92 127 96.89 127.1 96.99 132.95C97.09 138.35 97.17 139.13 97.85 140.84C99.14 144.04 100.65 146.23 103.62 149.07C110.21 155.36 111.63 158.52 111.72 167.04C111.76 169.51 111.82 174.46 111.85 178.03C111.9 183.11 112.07 185.15 112.56 187.29C114.19 194.55 115.58 197.65 119.78 203.59C125.95 212.23 128.68 215.44 132.84 219.04L136.61 222.29L138.76 222.48C141.1 222.7 148.9 222.26 151.95 221.76C153.73 221.46 156.67 220.4 159.51 219.02C160.74 218.44 169.42 210.91 170.76 209.29C171.58 208.27 171.58 208.17 171.72 201.24C171.93 191.15 171.87 189.69 171.03 186.19C170.61 184.44 170.25 182.43 170.23 181.68C170.21 180.32 170.65 179.69 173.06 177.83C174.82 176.43 178.71 170.18 179.98 166.58C180.2 165.96 180.6 164.94 180.85 164.32C181.1 163.7 181.58 161.05 181.89 158.45C182.45 153.72 182.68 151.93 183.3 148.14C183.44 147.07 183.72 144.49 183.88 142.44C184.14 138.95 184.14 138.43 183.4 135.78C182.99 134.16 182.36 132.06 182.02 131.09C180.07 125.69 179.87 123.35 181 119.2C181.91 115.77 181.93 113.04 181 110.22C180.62 109.06 179.99 106.63 179.6 104.75C178.04 97.62 176.56 94.79 172.43 91.12C170.81 89.72 169.13 88.35 168.67 88.13C168.21 87.88 166.48 87.45 164.85 87.15C163.18 86.83 160.73 86.25 159.39 85.82C155.79 84.68 144.1 83.72 139.72 84.22Z" />
		</g>
		<g id="Layer">
			<path id="Layer" class="shp3" d="M109.71 174.85C108.85 175.97 103.3 185.7 103.3 186.06C103.31 186.12 102.74 187.04 102.07 188.1L100.8 190.01L100.83 195.01L100.82 200.02L103.76 208.1C106.67 216.18 109.71 224.36 112.06 230.4C112.74 232.18 113.39 233.95 113.5 234.38C113.6 234.76 113.8 235.18 113.97 235.28C114.76 235.75 120.05 231.43 120.03 230.32C120.02 229.71 123.97 221.57 125.74 218.54L127.63 215.32L126.47 213.98C123.95 210.93 117.41 201.91 115.77 199.17C114.46 196.95 113.26 193.79 112.22 189.74C111.48 186.79 111.26 185.07 111.03 179.84L110.73 173.53L109.71 174.85Z" />
		</g>
		<g id="Layer">
			<path id="Layer" class="shp4" d="M171.6 185.2C171.6 185.37 171.84 186.27 172.15 187.24C172.64 188.73 172.72 190.03 172.64 196.31C172.58 200.34 172.48 204.05 172.43 204.61C172.37 205.13 172.32 207.47 172.33 209.81C172.37 212.12 172.22 214.86 172.04 215.84C171.83 216.88 170.62 219.86 169.08 223.04C167.61 226.03 165.7 230.23 164.79 232.39C163.89 234.55 161.82 239.21 160.19 242.75C158.6 246.26 157.13 249.6 156.91 250.13C156.54 251.14 156.32 253.88 156.17 259.7L156.07 263.45L156.61 260.84C156.88 259.37 157.47 257.73 157.91 257.07C158.86 255.62 163.83 249.68 168.99 243.8C173.46 238.71 173.55 238.58 175.2 234.48C177.17 229.6 177.11 230.09 175.95 228.94L174.92 227.92L175 224.7C175.03 222.91 175.36 219.19 175.73 216.42C176.33 211.99 176.4 210.16 176.25 201.61C176.1 191.27 176.1 191.24 174.38 188.08C174.11 187.63 173.91 187.02 173.9 186.76C173.9 186.46 173.5 185.95 173.03 185.6C172.11 184.9 171.59 184.75 171.6 185.2Z" />
		</g>
		<g id="Layer">
			<path id="Layer" class="shp0" d="M465.79 182.52C463.65 182.98 461.78 183.5 461.65 183.63C461.49 183.8 461.39 185.42 461.42 187.25C461.48 190.4 461.55 190.79 463.36 195.8C464.39 198.67 465.8 202.78 466.48 204.92C467.17 207.05 469.4 213.58 471.46 219.46C473.51 225.32 476.3 233.56 477.64 237.73C478.98 241.9 482.1 251.15 484.57 258.26C488.48 269.58 493.5 284.49 497.42 296.58C498.55 300.11 499.42 303.25 502.29 314.71C504.5 323.39 505.82 328.05 506.91 330.89C507.46 332.41 508.45 335.45 509.11 337.68C509.77 339.92 511.32 344.93 512.56 348.84C513.8 352.76 515.29 357.55 515.84 359.52C516.43 361.46 517.46 364.6 518.11 366.47C518.79 368.35 519.76 371.26 520.24 372.94C521.07 375.76 522.11 379.15 524.87 387.82C525.38 389.5 526.13 392.87 526.46 395.28C527.02 399.04 527.07 400.08 526.78 402.43C526.36 405.82 525.76 407.06 522.89 410.56C518.57 415.88 516.31 417.35 511.19 418.22C508.21 418.73 501.12 418.82 496.13 418.42C494.8 418.31 490.01 418.01 483.43 417.64C482.1 417.56 479.3 417.42 477.25 417.29C475.2 417.17 472.33 416.99 470.9 416.92C469.47 416.81 466.24 416.58 463.73 416.36C461.22 416.15 456.6 415.8 453.47 415.6C447.16 415.19 446.83 415.16 434.59 414.47C424.27 413.87 423.52 413.82 415.28 413.32C411.7 413.12 408.73 413.01 408.64 413.08C408.57 413.18 409.65 413.32 411.05 413.43C412.45 413.5 415.22 413.74 417.18 413.97C419.16 414.19 422.81 414.55 425.32 414.8C432.36 415.45 438.49 416.06 439.27 416.18C439.66 416.24 441.91 416.42 444.22 416.58C448.03 416.83 463.67 418.38 473.38 419.47C475.44 419.7 478.96 420.03 481.2 420.18C485.18 420.44 495.34 421.46 505.97 422.64C509.98 423.09 512.48 423.2 515.9 423.05C520.74 422.83 521.32 422.66 527.13 419.85C531.8 417.59 546.97 410.72 556.43 406.58C558.3 405.77 562.72 403.77 566.23 402.15C572.2 399.41 572.82 399.04 574.64 397.18C576.84 394.9 580.44 388.66 580.57 386.83C580.7 385.04 579.9 381.97 577.53 375.18C570.13 354 567.14 345.31 565.63 340.42C564.69 337.38 562.84 331.85 561.54 328.13C548.78 291.38 546.11 283.55 546.09 282.74C546.09 282.41 545.78 281.77 545.42 281.32C545.05 280.87 544.75 280.42 544.75 280.29C544.75 280.16 543.83 277.83 542.74 275.15C541.62 272.47 538.96 265.92 536.79 260.59C534.64 255.26 531.79 248.35 530.47 245.25C527.75 238.96 526.39 235.6 519.11 217.8C508.98 193 508.78 192.58 505.77 190C503.39 187.96 498.42 186.13 491.33 184.66C486.47 183.68 472.15 181.56 470.75 181.61C470.14 181.63 467.9 182.06 465.79 182.52Z" />
		</g>
		<g id="Layer">
			<path id="Layer" class="shp3" d="M99.04 191.4C98.47 192.06 95.79 193.51 94.34 193.96C93.88 194.1 91.14 195.22 88.2 196.41C81.65 199.13 75.16 202.33 72.21 204.34C69.76 206.01 69.05 206.35 64.76 208.11C59.4 210.35 46.83 216.95 45.59 218.21C44.05 219.77 42.94 221.48 41 225.32C40.15 227.03 37.69 231.62 35.55 235.5C33.41 239.38 31.52 242.86 31.33 243.22C31.14 243.58 29.88 245.91 28.49 248.38C25.63 253.66 24.98 255.63 24.61 260.38C24.19 266.05 23.47 267.88 18.7 275.64C15.38 281.04 14.5 282.88 13.74 286.14C13.41 287.58 12.35 291.99 11.41 295.94C8.35 308.71 7.2 314.88 6.36 322.7C6.11 325.02 5.65 328.7 5.36 330.85C5.05 333.01 4.67 335.78 4.5 337.05C4.33 338.29 4.01 340.57 3.78 342.1C3.54 343.64 3.23 345.98 3.06 347.32C2.65 350.42 1.42 355.77 0.58 358C-0.01 359.54 -0.04 359.77 0.43 360.44C1.59 362.11 7.89 368.8 7.59 368.03C6.63 365.6 6.2 363.33 6.11 359.82C5.97 355.99 6 355.82 6.98 353.76C8.29 350.97 9.34 349.71 12.9 346.63C14.53 345.2 17.28 342.68 19.04 341.02C21.83 338.4 26.37 334.29 29.96 331.13C32.01 329.37 36.65 326.56 38.62 325.9C40.36 325.32 41.96 325.23 52.42 324.94L64.29 324.6L67.24 325.75C68.88 326.41 70.45 327.06 70.75 327.25C71.5 327.66 71.66 327.66 71.65 327.11C71.65 326.85 72.12 325.76 72.72 324.71C74.58 321.46 76.03 315.45 77.26 305.99C77.67 303.03 78.16 299.47 78.33 298.07C78.85 294.39 78.31 291.79 75.63 285.4C74.41 282.53 73.42 279.78 73.41 279.32C73.4 278.87 73.61 278.05 73.9 277.49C74.46 276.28 75.17 276.04 74.83 277.15C74.19 279.34 74.33 280.15 76.3 284.71C78.85 290.65 79.23 291.97 79.31 294.87C79.39 297.6 77.62 311.45 76.65 315.6C75.53 320.3 74.55 323.48 73.76 324.66C72.81 326.14 72.5 327.09 72.93 327.38C73.12 327.47 74.92 327.89 76.94 328.28C78.97 328.67 81.88 329.36 83.41 329.76C86.42 330.62 128.43 337.03 133.9 337.48C141.85 338.16 154.47 337.93 155.75 337.13C156.27 336.79 155.86 332.34 154.45 322.35C153.37 314.76 153.28 309.43 153.78 288.37C153.81 286.13 153.92 283.42 153.97 282.35C154.01 281.28 154.13 278.93 154.2 277.14C154.37 272.29 154.58 269.1 154.69 268.19C154.75 267.73 154.88 266.2 154.96 264.77C155.03 263.34 155.29 259.49 155.52 256.24C156.02 249.66 156.21 250.89 153.77 245.44C153.26 244.27 152.21 241.82 151.43 239.95C148.91 233.91 147.38 231.79 143.79 229.51C143 228.97 140.53 227 138.35 225.05C129.29 217.15 128.2 216.22 128.11 216.32C126.93 217.71 120.99 229.43 121 230.34C121.02 231.22 118.56 233.8 116.47 235.07C113.93 236.64 113.5 236.59 112.79 234.78C112.55 234.16 111.73 231.97 110.91 229.93C109.35 225.86 107.23 220.24 102.96 208.61L100.15 201.01L100.13 195.87C100.11 193.08 100 190.77 99.84 190.77C99.71 190.77 99.33 191.07 99.04 191.4Z" />
		</g>
		<g id="Layer">
			<path id="Layer" class="shp3" d="M177.19 201.63C177.21 206.57 177.14 211.81 176.97 213.28C176.84 214.71 176.65 216.73 176.53 217.71C176.45 218.69 176.19 220.51 175.95 221.72C175.72 222.96 175.55 224.69 175.57 225.56C175.59 226.93 175.76 227.32 176.79 228.44L178.01 229.75L177.52 230.96C177.27 231.62 176.52 233.48 175.9 235.12C174.31 239.15 173.9 239.71 169.05 245.13C166.69 247.74 164.08 250.81 163.22 251.9C162.36 253.02 160.99 254.68 160.16 255.63C158.66 257.32 157.62 259.19 157.64 260.1C157.64 260.36 157.14 263.1 156.48 266.24C155.37 271.69 155.18 273.64 154.9 281.85C154.84 283.9 154.75 286.01 154.69 286.57C154.64 287.09 154.51 292.75 154.4 299.09C154.22 311.2 154.4 316.07 155.32 322.01C155.62 323.96 156.08 327.85 156.32 330.61C156.57 333.37 156.87 335.97 156.98 336.33L157.22 337L162.2 335.84C164.96 335.21 169.33 333.96 171.91 333.07C184.81 328.68 187.18 328.41 198.4 330.03C202.84 330.66 206.65 331.38 207.74 331.81C208.72 332.19 211.54 333.76 213.98 335.35C216.38 336.9 220.16 339.24 222.33 340.5C224.5 341.79 226.77 343.28 227.34 343.83C228 344.4 229.5 346.81 231.12 349.94L233.81 355.1L233.5 346.48C233.32 341.74 233.09 336.24 232.96 334.29C232.82 332.31 232.87 329.48 233.01 327.95C233.17 326.42 233.58 321.95 233.97 318.01C234.35 314.07 234.8 309.67 234.97 308.24C235.33 305.01 235.35 305.98 234.77 297.34C234.14 287.66 233.58 268.74 233.91 268.73C234.36 268.73 234.58 271.75 235.01 284.82C235.46 299.61 235.85 304.8 236.47 304.79C237.15 304.78 250.41 316.78 252 318.83C253.1 320.27 253.17 320.31 253.74 319.71C254.51 318.92 258.35 318.85 262.33 319.52C263.93 319.79 265.82 320.02 266.53 320C267.99 319.98 272.52 318.24 272.51 317.69C272.5 317.49 272.6 315.8 272.77 313.91C272.89 312.02 273.26 307.04 273.55 302.83C273.83 298.63 274.25 293.36 274.48 291.11C274.66 288.86 274.94 286.09 275.02 284.92C275.09 283.75 275.28 281.56 275.42 280.03C275.55 278.5 275.73 275.86 275.8 274.17C275.95 271.37 276.05 269.81 276.61 263.1C276.69 261.92 276.83 260.91 276.9 260.85C276.96 260.78 275.88 260.08 274.46 259.3C273.08 258.51 271.18 257.43 270.29 256.87C269.37 256.3 268.28 255.73 267.86 255.61C267.04 255.36 267.04 255.36 267.79 251.61C268.18 249.58 268.18 249.58 267.06 247.42C265.14 243.69 259.24 235.4 256.49 232.58C253.84 229.87 245.71 222.82 240.96 219.13C239.54 218.02 236.51 215.47 234.23 213.5C231.95 211.52 229.44 209.45 228.62 208.94C226.97 207.87 223.73 206.92 217.99 205.75C214.56 205.03 213.62 204.95 210.37 205.2C204 205.61 202.56 205.08 195.34 199.52C192.63 197.45 189.8 195.42 189.08 195.07C187.47 194.29 184.69 193.66 180.85 193.24C179.32 193.07 177.85 192.87 177.59 192.81C177.16 192.68 177.12 193.82 177.19 201.63Z" />
		</g>
		<g id="Layer">
			<path id="Layer" class="shp5" d="M169.31 211.92C160.86 220.13 157.03 222.19 148.17 223.09C145.54 223.37 142.22 223.52 140.59 223.42L137.66 223.24L139.81 225.16C140.97 226.21 142.75 227.61 143.74 228.28C148.02 231.13 149.98 233.86 152.71 240.61C153.46 242.48 154.37 244.68 154.71 245.45C155.08 246.23 155.59 247.35 155.86 247.97L156.34 249.03L159.81 241.39C163.35 233.56 164.29 231.49 165.56 228.31C165.97 227.33 166.69 225.75 167.19 224.87C169.02 221.52 170.86 217.19 171.13 215.66C171.46 213.86 171.59 210.41 171.36 210.19C171.29 210.12 170.36 210.89 169.31 211.92Z" />
		</g>
		<g id="Layer">
			<path id="Layer" class="shp2" d="M269.95 320.01C267.85 320.96 265.87 321.06 262.47 320.4C261.13 320.16 258.82 319.94 257.32 319.94L254.62 319.92L253.77 321.04C252.34 322.92 251.74 323.97 248.16 331.16C246.37 334.74 245.42 339.93 244.96 348.75C244.53 356.01 244.61 357.02 246.15 363.17C246.44 364.34 246.69 365.7 246.7 366.25C246.78 369.18 249.22 372.91 251.81 374.1C253.55 374.91 256.77 374.95 257.83 374.15C258.64 373.59 258.8 371.6 258.04 371.19C256.73 370.43 256.72 369.94 257.88 356.65C258.47 349.65 259.06 342.38 259.19 340.5C259.37 337.83 259.64 336.49 260.41 334.46C261.97 330.43 264.25 325.44 264.58 325.44C265.07 325.43 264.86 326.41 263.95 328.31C260.87 334.74 260.05 337.72 259.8 343.74C259.73 345.43 259.22 351.78 258.68 357.81C258.17 363.84 257.81 369.11 257.95 369.53C258.19 370.44 259.77 371.48 262.32 372.51C263.73 373.04 264.84 373.25 266.63 373.22L269 373.17L270.22 371.82C271.43 370.46 271.43 370.43 270.98 369.2C270.03 366.65 269.63 362.75 269.75 356.73C269.79 353.51 269.9 350.36 269.99 349.74C270.04 349.12 270.28 346.32 270.53 343.55C270.74 340.78 271.01 337.85 271.06 337.03C271.17 335.66 271.79 327 272.15 321.46C272.23 320.16 272.18 319.12 272.01 319.16C271.85 319.19 270.91 319.57 269.95 320.01Z" />
		</g>
		<g id="Layer">
			<path id="Layer" class="shp2" d="M63.49 325.43L53.19 325.65C46.75 325.79 42.03 326.01 40.74 326.29C35.78 327.29 33.53 328.92 18.9 342.26C10.87 349.59 8.92 351.61 7.85 353.77C7.07 355.32 6.95 356 6.91 359.16C6.84 362.51 6.91 363.03 7.98 366.29C8.6 368.24 9.31 370.04 9.55 370.33C9.94 370.78 12.7 372.2 15.06 373.16C16.63 373.82 22.48 375.05 25.18 375.32C25.84 375.38 27.27 375.41 29.33 375.41C32.9 375.41 38.35 375.33 44.86 375.17C66.94 374.62 85.93 374.28 100.3 374.22C115.72 374.14 120.13 373.64 132.93 370.71C137.81 369.59 138.98 369.34 141.48 369.34C142.13 369.34 142.88 369.36 143.8 369.38C146.31 369.43 148.88 369.55 149.5 369.6C152.85 369.94 155.51 370.1 157.68 370.1C159.11 370.1 160.33 370.03 161.38 369.88C163.21 369.64 164.41 369.47 165.54 369.47C168.01 369.47 170.16 370.3 177.96 373.13C179.89 373.81 182.83 374.61 184.5 374.9L187.56 375.37L191.09 374.43C193.03 373.94 194.98 373.51 195.37 373.51C196.28 373.49 200.97 372.11 201.39 371.74C201.71 371.44 199.25 366.7 197.88 365C197.39 364.39 195.85 362.28 194.48 360.32C190.98 355.34 187.12 350.75 185.84 350.03C184.66 349.37 179.24 347.13 178.83 347.13L178.83 347.13C178.67 347.13 179.1 347.68 179.76 348.31C180.39 348.99 181.83 350.91 182.93 352.58C186.17 357.54 187.78 359.95 189.31 362.03C193.11 367.3 193.38 367.78 193.4 368.99C193.43 370.42 192.51 371.93 190.78 373.39C189.71 374.28 189.28 374.42 187.78 374.42C187.76 374.42 187.73 374.42 187.71 374.42C187.66 374.42 187.61 374.42 187.56 374.42C186.5 374.42 185.37 374.22 184.74 373.89C183.16 373.07 178.17 368.35 174.88 364.5C172.85 362.2 171.1 360.54 168.86 358.95C164.61 355.9 160.91 352.94 160.91 352.62C160.9 352.44 160.97 352.34 161.11 352.34C161.47 352.34 162.36 352.93 164.09 354.28C165.51 355.4 167.72 357.02 168.97 357.94C171.41 359.65 173.46 361.66 178.07 366.75C182.57 371.73 185.14 373.65 187.4 373.65C187.42 373.65 187.44 373.65 187.47 373.65C188.96 373.62 190.19 372.95 191.46 371.46C192.89 369.78 192.8 368.35 191.1 366.07C188.71 362.89 185.4 358.07 181.52 352.06C180.58 350.58 179.39 349.07 178.86 348.69C176.09 346.69 174.79 344.88 175.75 344.88L175.76 344.88C176.03 344.88 176.5 345.03 177.17 345.37C177.67 345.62 179.73 346.49 181.76 347.3C183.76 348.08 185.86 349.05 186.45 349.43C187.8 350.29 192.18 355.44 194.82 359.24C195.96 360.84 197.59 363.12 198.46 364.28C200.82 367.49 205.24 376.1 205.26 377.59C205.28 378.27 206.43 379.26 208.2 380.14C209.15 380.61 210.12 380.84 211.05 380.84C212.85 380.84 214.49 379.98 215.43 378.42C216.31 376.94 215.99 375.29 213.56 368.47C211.23 361.94 210.99 361.39 208.25 357.11C207.08 355.28 206.14 353.73 206.14 353.67C206.14 353.41 203.39 348.84 202.28 347.2C200.82 345.08 196.09 340.8 192.63 338.46C191.51 337.73 191.21 337.15 191.96 337.14L191.96 337.14C192.67 337.16 195.31 339.13 200.89 343.81C205.81 347.92 206.67 348.78 208.74 351.8C210.04 353.66 212.16 357.27 213.47 359.85C219.3 371.36 220.82 374.32 221.77 376.36C222.91 378.76 223.69 379.69 224.69 379.69C224.82 379.69 224.94 379.67 225.08 379.65C229.74 378.59 231.28 377.45 231.24 375.08C231.21 373.13 228.54 365.99 225.43 359.41C223.58 355.54 220.62 348.69 220.45 347.88C220.3 347.26 220.31 346.97 220.43 346.97L220.43 346.97C220.7 346.97 221.48 348.29 222.38 350.42C223.13 352.2 223.94 354.07 224.18 354.62C226.71 359.84 230.55 368.88 231.48 371.86C232.06 373.64 232.21 374.64 232.07 375.81L231.87 377.38L233.11 377.68C233.55 377.8 233.96 377.85 234.35 377.85C235.29 377.85 236.09 377.5 236.87 376.77C238.14 375.51 238.24 373.72 237.24 370.1C236.78 368.44 236.19 366.15 235.97 364.98C235.72 363.81 235.24 362.26 234.9 361.52C234.57 360.77 234.08 359.32 233.87 358.28C233.62 357.18 232.23 354.08 230.55 350.8C227.22 344.41 227.32 344.51 220.87 340.69C218.6 339.33 215.38 337.34 213.7 336.2C207.97 332.39 206.99 332.09 195.91 330.56C193.42 330.22 191.31 330.04 189.3 330.04C184.82 330.04 180.84 330.96 174.39 333.19C166.98 335.79 159.8 337.58 153.18 338.51C151.66 338.71 147.91 338.82 144.31 338.82C141.36 338.82 138.51 338.75 137.08 338.6C136.56 338.54 135.06 338.44 133.79 338.33C127.86 337.95 87.38 331.74 82.61 330.49C77.69 329.19 74.13 328.45 72.6 328.45C72.52 328.45 72.44 328.46 72.36 328.46C72.34 328.46 72.33 328.46 72.31 328.46C71.69 328.46 70.85 328.29 70.4 328.07C69.94 327.82 68.17 327.14 66.54 326.51L63.49 325.43Z" />
		</g>
		<g id="Layer">
			<path id="Layer" class="shp6" d="M271.74 371.47L270.59 372.63C269.53 373.69 269.24 373.79 266.84 373.99C266.07 374.07 265.51 374.12 265.04 374.12C264 374.12 263.36 373.88 261.72 373.17L259.16 372.11L259.18 373.32C259.2 374.32 259.04 374.59 258.11 375.12C257.5 375.47 256.55 375.63 255.49 375.63C253.87 375.63 252 375.25 250.75 374.54C249.74 373.98 249.19 373.79 248 373.79C247.7 373.79 247.38 373.81 246.99 373.83C244.3 373.97 239.07 374.62 238.69 374.88C238.53 374.98 238.4 375.38 238.41 375.8C238.44 377.37 236.28 378.62 234.07 378.62C233.53 378.62 232.99 378.54 232.47 378.38C232.01 378.24 231.7 378.17 231.46 378.17C231.16 378.17 230.96 378.27 230.72 378.47C229.63 379.43 226.09 380.43 224.16 380.43C223.88 380.43 223.63 380.41 223.43 380.36C222.91 380.24 222.34 379.57 221.6 378.11C221 376.99 220.52 375.95 220.52 375.82C220.52 375.8 220.43 375.61 220.28 375.28L220.28 375.28L216.72 376.09L216.72 376.09C216.84 377.3 216.63 378.08 216.19 378.99C215.46 380.47 213.27 381.65 211.22 381.68C211.19 381.68 211.16 381.68 211.13 381.68C209.06 381.68 206.34 380.48 204.96 378.96L204 377.94L200.99 378.48C199.33 378.77 195.57 379.26 192.61 379.57C188.17 380.07 183.14 380.72 175.74 381.82C175.12 381.9 172.78 382.17 170.54 382.4C168.3 382.64 163.57 383.21 160 383.73C156.43 384.22 152.18 384.75 150.55 384.87C148.93 385.03 147.44 385.25 147.24 385.39C147.05 385.49 146.87 386.14 146.81 386.83L146.74 388.06L149.03 389C150.31 389.53 152.37 390.31 153.62 390.74C154.89 391.17 156.66 391.82 157.55 392.23C158.46 392.6 160.46 393.38 162 393.91L164.85 394.93L165.14 398.76L165.44 402.63L167.23 402.83C167.41 402.84 167.66 402.85 167.99 402.85C169.51 402.85 172.5 402.65 175.55 402.35C179.15 401.96 182.99 401.57 184.06 401.49C185.13 401.37 187.34 401.13 188.93 400.94C190.55 400.75 196.23 400.2 201.59 399.74C206.95 399.29 211.56 398.85 211.82 398.75C212.24 398.61 216.49 398.24 225.46 397.5C226.99 397.37 230.2 397.06 232.6 396.75C235 396.45 239.78 396.01 243.16 395.75C246.57 395.5 250.5 395.13 251.92 394.95C255.56 394.46 258.94 394.14 266.86 393.54C270.01 393.29 271.51 393.13 273.84 392.77C274.46 392.66 278.19 392.3 282.12 391.97C286.08 391.64 290.82 391.13 292.67 390.84C294.55 390.55 296.89 390.21 297.86 390.06C298.84 389.95 300 389.77 300.46 389.69C300.91 389.62 302.44 389.43 303.87 389.31C307.31 388.99 307.73 388.95 319.93 387.27C325.74 386.45 332.75 385.51 335.51 385.17C344.43 384.03 343.72 384.21 344.15 382.9C344.71 381.13 344.6 378.66 343.86 377.5C343.33 376.64 340.82 375.17 339.93 375.17C339.93 375.17 339.92 375.17 339.92 375.17L339.91 375.17C339.75 375.17 338.8 374.83 337.79 374.39C335.89 373.58 335.42 372.81 336.68 372.49C337.15 372.38 337.26 372.33 337.1 372.33L337.1 372.33C336.44 372.33 331.4 373.13 327.05 373.97C319.59 375.4 316.09 376.18 305.31 378.84C298.2 380.59 297.54 380.75 293.91 380.75C293.62 380.75 293.31 380.75 292.98 380.75C292.92 380.75 292.86 380.75 292.8 380.75C289.01 380.75 288 380.6 285.65 379.9C280.97 378.46 276.64 376.16 274.02 373.67L271.74 371.47Z" />
		</g>
		<g id="Layer">
			<path id="Layer" class="shp0" d="M443.31 383.64C442.57 383.85 439.82 385.04 437.21 386.29C435.56 387.1 433.89 387.84 423.43 392.65C421.17 393.7 418.66 394.85 417.82 395.25C416.4 395.93 414.27 396.91 404.4 401.44C402.14 402.49 399.59 403.64 398.75 404.05C394.78 405.88 391.88 407.26 390.4 407.97C388.85 408.71 387.82 409.19 385.46 410.14C384.88 410.38 384.46 410.61 384.49 410.64C384.66 410.8 394.26 411.38 401.2 411.65C402.99 411.71 405.98 411.89 407.87 412.02C409.76 412.15 412.53 412.33 414.06 412.4C415.59 412.47 418.52 412.64 420.57 412.77C422.62 412.89 425.42 413.07 426.76 413.15C436.88 413.72 451.01 414.54 452.58 414.64C453.59 414.72 455.35 414.82 456.49 414.9C457.59 414.97 460.49 415.21 462.9 415.43C465.31 415.65 472.22 416.11 478.21 416.46C484.2 416.81 490 417.13 491.07 417.21C509.31 418.41 514.92 417.7 518.92 413.69C520.42 412.2 524.21 407.55 525 406.26C525.98 404.65 526.25 400.13 525.63 396.07L525.11 392.53L522.18 392.23C520.58 392.06 518.24 391.78 516.96 391.61C515.72 391.43 513.08 391.15 511.1 390.99C509.14 390.83 505.92 390.47 503.93 390.15C499.95 389.53 499.98 389.53 492.35 388.72C489.39 388.42 484.7 387.92 481.93 387.61C479.16 387.3 476.16 386.96 475.24 386.88C474.36 386.8 470.84 386.34 467.45 385.88C460.57 384.93 446.04 383.33 444.77 383.42C444.32 383.46 443.67 383.57 443.31 383.64Z" />
		</g>
		<g id="Layer">
			<path id="Layer" class="shp7" d="M405.87 412.93C406.1 413.03 406.39 412.99 406.49 412.89C406.62 412.79 406.42 412.69 406.06 412.73C405.7 412.74 405.61 412.84 405.87 412.93Z" />
		</g>
	</g>
</svg>