<svg xmlns="http://www.w3.org/2000/svg" viewBox="0 0 1200 900" width="1200" height="900">
	<style>
		tspan { white-space:pre }
		.shp0 { fill: #fabb9b } 
		.shp1 { fill: #ffffff } 
		.shp2 { fill: #184040 } 
		.shp3 { fill: #000000 } 
		.shp4 { fill: #ff5600 } 
	</style>
	<g id="layer1">
		<g id="Layer">
			<path id="Layer" class="shp0" d="M904.21 507.87L867.07 449.08L814.66 394.77L794.67 369.8C786.71 359.57 778.96 348.23 771.4 335.79C751.57 299.25 741.2 280.94 740.27 280.88C732.49 270 727.55 263.76 725.45 262.16C706.54 244 681.59 233.23 650.58 229.86C606.82 218.82 549.53 233.6 478.71 274.22C404.88 316.49 378 350.58 398.05 376.49C404.61 384.59 411.55 389.06 418.86 389.87C427.7 392.02 441.55 387.83 460.42 377.32L488.63 389.59C445.44 412.33 432.36 428.5 449.37 438.09C456.16 439.88 465.79 437.96 478.24 432.33C492.1 426.27 513.35 414.53 542 397.1C563.47 407.44 578.82 413.88 588.03 416.42C597.52 419.43 610.22 421.32 626.14 422.08C632.96 423.75 638.85 425.88 643.8 428.48C650.95 432.44 656.76 436.28 661.23 440C699.29 473.55 721.06 491.77 726.52 494.66C740.9 504.34 756.57 511.9 773.54 517.33L810.73 578.51L904.21 507.87Z" />
		</g>
		<g id="Layer">
			<path id="Layer" class="shp0" d="M190.67 503.93L267.28 337.48C312.09 232.56 337.74 179.38 344.23 177.95L350.45 173.01L386.31 152.67C411.44 141.15 429.67 132.08 441.02 125.46L548.71 62.18C558.91 56.56 566.18 53.3 570.53 52.42C582.02 52.39 585.75 60.59 581.71 77.04C577.66 86.17 567.45 95.99 551.1 106.48C575.41 123.14 594.35 135.74 607.92 144.27L651.21 169.75C656.01 172.91 659.86 176.46 662.76 180.41C670.81 189.61 670.57 211.88 662.05 247.2L415.66 391.52C402.46 413.44 392.56 427.24 385.96 432.9C379.36 439.52 369.46 444.13 356.26 446.75L323.5 541.34L190.67 503.93Z" />
		</g>
		<g id="Layer">
			<path id="Layer" class="shp1" d="M805.46 629.13L784.09 595.18L762.73 561.23L921.11 457.24L971.46 531.28L805.46 629.13Z" />
		</g>
		<g id="Layer">
			<path id="Layer" class="shp1" d="M148.2 550.47L163.59 517.41L178.99 484.36L347.28 548.85L323.1 617.23L148.2 550.47Z" />
		</g>
		<g id="Layer">
			<path id="Layer" class="shp2" d="M2.92 860.54L72.6 696.59L142.28 532.64L346.52 609.2L253.31 855.65L2.92 860.54Z" />
		</g>
		<g id="Layer">
			<path id="Layer" class="shp2" d="M916.01 851.38L848.17 739.71L780.32 628.04L983.52 498.38L1186.97 847.26L916.01 851.38Z" />
		</g>
		<g id="Layer">
			<path id="Layer" class="shp3" d="M433.44 48.77L532.23 47.29L631.02 45.8L635.91 371.58L438.34 374.54L433.44 48.77Z" />
		</g>
		<g id="Layer">
			<path id="Layer" class="shp1" d="M448.96 67.55L533.69 66.3L618.42 65.06L622.59 349.19C566.1 350.02 509.61 350.85 453.13 351.68L448.96 67.55Z" />
		</g>
		<g id="Layer">
			<path id="Layer" class="shp0" d="M636.82 371.87L639.27 373.89C650.53 383.24 656.52 387.97 657.23 388.09C652.74 382.88 646.53 377.53 638.6 372.03C631.37 367.31 626.81 364.58 624.92 363.83C621.61 362.13 618.16 360.64 614.6 359.34C611.05 358.08 607.44 357.05 603.76 356.25C601 355.54 596.42 354.87 590.02 354.26C581.46 353.47 572.33 354.03 562.63 355.92C556.95 357.2 552.55 358.9 549.41 361.01C546.3 363.12 544.07 365.51 542.71 368.18C540.81 372.23 539.65 376.5 539.23 381.02L542.77 394.23L623.78 398.61L636.82 371.87Z" />
		</g>
		<g id="Layer" style="opacity: 0.302">
			<path id="Layer" fill-rule="evenodd" class="shp4" d="M433.46 140.95L434.52 141.3L435.71 141.88L437.05 142.7L438.51 143.75L440.11 145.04L441.85 146.56C443.06 147.65 444.35 148.89 445.74 150.29L433.78 143.35C433.46 143.22 433.13 143.11 432.79 143.03C432.25 142.93 431.84 142.89 431.54 142.89C431.5 142.89 431.46 142.89 431.42 142.89C431.37 142.89 431.31 142.89 431.26 142.89C430.68 142.89 429.9 143.01 428.91 143.26C429.44 142.77 430 142.3 430.61 141.86C430.87 141.51 431.04 141.32 431.12 141.29C431.17 141.21 431.39 141.1 431.76 140.94C431.92 140.9 432.09 140.86 432.27 140.84L432.54 140.83L433.46 140.95ZM446.04 150.47L446.15 150.53L446.4 150.82L446.62 151.21L446.81 151.71L446.96 152.31L447.07 153.01L447.15 153.83L447.2 154.74L447.21 155.76L447.18 156.89C446.99 155.11 446.62 153.23 446.06 151.22L445.84 150.47L446.04 150.47ZM447.3 158.48L447.32 159.22L447.32 159.94L447.29 160.66L447.24 161.35L447.17 162.04L447.07 162.7L446.95 163.36L446.8 163.99L446.63 164.62L446.46 164.62C446.74 162.55 446.93 160.7 447.06 159.08L447.1 158.48L447.3 158.48ZM667.14 196.15C665.69 200.96 664.17 204.36 662.56 206.35C661.88 207.26 661.09 208.05 660.2 208.73L658.76 209.66L657.12 210.38L655.28 210.88L653.2 211.15L650.91 211.2L648.43 211.04C646.71 210.87 644.88 210.59 642.95 210.2C637.06 208.93 630.7 207.18 623.87 204.94L620.51 203.87L645.16 209.3C646.96 209.38 648.45 209.41 649.61 209.41C650.43 209.41 651.09 209.39 651.59 209.36C652.42 209.32 653.23 209.24 654.02 209.13L655.18 208.91C656.72 208.61 658.11 208.05 659.36 207.25C659.72 207.13 660.57 206.37 661.91 204.97C663.51 203.09 665.18 200.15 666.93 196.15L667.14 196.15ZM642.37 229.64L663.16 232.94L621.79 229.01L621.57 226.35L642.37 229.64ZM428.81 143.34C427.98 144.07 426.59 145.48 424.64 147.55L400.88 173.96L383.97 189.13C377.64 197.01 374.23 201.14 373.73 201.51L329.64 241.71L370.24 196.08C374.73 193.95 379.01 191.13 383.07 187.62L405.72 164.62L414.84 152.89C420.22 147.93 424.76 144.77 428.45 143.39L428.61 143.34L428.81 143.34ZM422.28 223.07L421.03 225.61C420.16 227.32 419.22 229.03 418.2 230.76C417.18 232.49 416.1 234.23 414.93 235.98L413.14 238.61L411.23 241.27C409.93 243.05 408.55 244.84 407.1 246.64L402.29 251.83L422.08 223.07L422.28 223.07ZM645.82 266.73L641.8 272.05L638.11 273.27C637.92 273.37 637.73 273.48 637.53 273.6L637.39 273.6C639.81 271.54 641.54 270.02 642.6 269.04C643.87 268 644.81 267.27 645.41 266.87L645.61 266.73L645.82 266.73ZM436.11 234.13L455.6 275.54L455.58 275.54C455.14 274.94 454.59 274.29 453.91 273.6C451.71 271.67 450.23 270.27 449.47 269.38C448.7 268.59 447.68 266.93 446.42 264.39C446.09 263.73 445.17 261.47 443.66 257.61C442.44 255.22 441.52 253.29 440.9 251.82L439.45 247.88C438.47 245.16 437.68 242.65 437.09 240.36C436.89 239.72 436.55 238.12 436.09 235.56L435.9 234.13L436.11 234.13ZM636.03 274.73C633.84 276.55 631.89 278.15 630.17 279.52C631.75 277.88 633.61 276.3 635.76 274.78L635.83 274.73L636.03 274.73ZM629.57 280.17C628.96 280.86 628.49 281.42 628.17 281.87L626.28 282.68L626.22 282.68C627.19 281.91 628.12 281.17 629.02 280.45L629.37 280.17L629.57 280.17ZM625.9 282.93C625.43 283.29 625.19 283.48 625.18 283.51C625.06 283.61 624.93 283.7 624.81 283.77C624.69 283.85 624.58 283.91 624.46 283.97L624.29 284.03L624.12 284.08L623.96 284.11L623.8 284.12L623.65 284.11L623.5 284.08L623.36 284.04L623.22 283.98C623.13 283.94 623.04 283.88 622.95 283.82L622.82 283.71C622.74 283.63 622.65 283.54 622.57 283.44L622.78 283.44C623.03 283.45 623.24 283.45 623.38 283.45C623.4 283.45 623.42 283.45 623.44 283.45C623.45 283.45 623.47 283.45 623.49 283.45C623.61 283.45 623.81 283.44 624.1 283.44C624.47 283.42 624.69 283.38 624.77 283.32L625.69 282.93L625.9 282.93ZM418.71 250.91C418.74 251.83 418.76 252.42 418.77 252.67C418.8 253.31 418.85 254.52 418.94 256.29C419.03 258.07 419.2 260.86 419.45 264.65C419.49 265.37 419.52 266.21 419.54 267.18C419.55 267.66 419.56 268.23 419.56 268.89L419.57 285.85C419.56 286.3 419.55 286.76 419.54 287.23C419.51 287.64 419.48 288.09 419.43 288.59L418.69 292.19L418.69 249.96C418.7 250.25 418.7 250.57 418.71 250.91ZM401.69 252.7L386.96 274.11C385.62 278.5 383.95 282.84 381.93 287.11C380.93 289.25 379.83 291.38 378.66 293.49C375.89 298.19 374.04 301.2 373.09 302.5L372.92 302.5C374.76 296.83 376.55 291.7 378.3 287.11C378.76 285.76 380.08 282.57 382.26 277.53C383.12 275.62 383.97 273.85 384.81 272.22C385.87 270.26 390.38 264.9 398.34 256.15L401.48 252.7L401.69 252.7ZM696.79 301.69L696.82 301.71C696.84 301.73 696.86 301.76 696.87 301.79C696.89 301.82 696.9 301.85 696.9 301.89C696.78 301.92 696.66 301.95 696.55 301.98C696.43 302.01 696.31 302.05 696.2 302.08L696.02 302.13C695.79 302.2 695.56 302.28 695.34 302.36C695.6 302.14 695.84 301.98 696.04 301.86L696.18 301.78L696.31 301.72L696.43 301.67L696.53 301.64L696.62 301.63C696.69 301.63 696.75 301.65 696.79 301.69ZM399.99 272.63L391.19 299.25C391.46 296.32 391.64 294.71 391.73 294.44C391.78 294.24 391.81 294.11 391.85 294.05L392.64 289.79L393.44 286L394.28 282.68L395.13 279.83L396.01 277.45L396.92 275.54L397.85 274.1L398.8 273.13L399.78 272.63L399.99 272.63ZM418.69 307.82C418.69 307.21 418.67 306.75 418.64 306.42L418.35 303.86L418.34 303.69C418.32 303.52 418.31 303.14 418.28 302.57C418.27 302.31 418.27 302.05 418.26 301.77L418.26 297.6C418.26 297.07 418.26 296.64 418.28 296.34C418.32 295.52 418.36 294.85 418.41 294.33C418.44 294.04 418.46 293.77 418.49 293.51C418.51 293.36 418.56 293 418.64 292.43L418.69 292.19L418.69 307.82ZM372.49 303.63C372.32 303.99 372.12 304.37 371.9 304.78C371.45 305.59 370.88 306.49 370.2 307.48C370.07 307.7 369.49 308.49 368.48 309.85C367.92 310.54 367.27 311.21 366.54 311.88C365.2 313.03 364.15 313.84 363.38 314.31C361.88 314.99 360.07 315.87 357.95 316.95C361.83 313.81 365.43 310.77 368.73 307.84C369.38 307.25 369.91 306.75 370.34 306.33C370.93 305.53 371.5 304.73 372.07 303.93L372.28 303.63L372.49 303.63ZM635.56 300.6L637.13 302.08L638.63 303.77L640.06 305.66L641.43 307.75L642.72 310.04L643.95 312.54L645.11 315.24L646.2 318.15L646.59 319.34L646.43 319.34C645.88 318.3 644.98 316.79 643.71 314.81C643.36 313.73 642.94 312.63 642.42 311.52C642.32 311.25 641.89 310.4 641.12 308.99C639.83 306.61 638.14 304.1 636.05 301.46L635.36 300.6L635.56 300.6ZM357.59 317.24C355.07 319.29 352.84 321.1 350.88 322.66C348.39 323.99 346.71 324.86 345.85 325.28C344.96 325.73 344.13 326.14 343.35 326.51L343.15 326.51C343.98 325.81 344.86 325.1 345.79 324.41C346.72 323.71 347.7 323.02 348.73 322.33C350.79 320.95 353.05 319.59 355.51 318.25L357.39 317.24L357.59 317.24ZM338.94 328.47C338.56 328.62 338.21 328.75 337.88 328.87L337.4 329.03L336.95 329.17L336.55 329.28L336.18 329.37L335.84 329.43L335.54 329.47L335.28 329.48C335.2 329.48 335.13 329.47 335.06 329.47C334.92 329.45 334.81 329.42 334.72 329.37C334.61 329.3 334.56 329.26 334.55 329.24C335.9 329.1 337.16 328.88 338.32 328.58L338.74 328.47L338.94 328.47ZM647.74 323.98C647.82 324.38 647.92 325.15 648.06 326.28C648.14 326.95 648.21 327.66 648.27 328.41C648.17 329.8 648.07 331.1 647.96 332.31C647.85 333.52 647.74 334.64 647.63 335.67L647.46 337.14C647.37 337.81 647.29 338.44 647.2 339.02L647 339.02L647.62 333.24C647.65 329.53 647.63 326.68 647.57 324.68L647.54 323.98L647.74 323.98ZM449.93 338.81L449.54 339.28L451.73 335.79L453.93 332.3L449.93 338.81ZM404.75 333.16L405.48 341.35C405.74 342.8 406.05 343.89 406.4 344.62C406.8 345.42 407.51 346.44 408.52 347.71C409.56 348.44 410.49 349.23 411.31 350.06C411.72 350.47 412.1 350.9 412.45 351.34C412.67 351.55 413.14 352.23 413.86 353.41L414 353.54C414.36 353.87 414.81 354.15 415.36 354.4L415.27 354.4C413.09 353.9 411.75 353.51 411.25 353.25C409.87 352.46 408.82 351.81 408.11 351.29C407.4 350.84 406.82 350.28 406.35 349.6L405.73 348.19L405.21 346.64L404.78 344.96L404.44 343.14L404.2 341.18C404.08 339.83 404.02 338.39 404.02 336.86C404.02 335.33 404.08 333.71 404.2 331.99C404.26 331.92 404.31 331.89 404.35 331.88L404.37 331.88C404.51 331.93 404.63 332.36 404.75 333.16ZM445.75 345.35C445.65 345.52 445.5 345.66 445.3 345.77C441.27 347.34 439.03 348.26 438.57 348.53L432.38 352.29L435.28 350.8L435.48 350.8C434.59 351.36 433.35 352.55 431.75 354.4C430.56 355.75 428.62 358.08 425.93 361.4C425.2 362.09 424.27 362.85 423.15 363.69C421.66 365.53 420.39 366.95 419.34 367.95C418.52 368.6 417.85 369.04 417.31 369.28C416.63 369.72 413.95 370.91 409.27 372.84L407.52 374.15C408.32 372.62 409.03 371.41 409.67 370.52C410.59 369.34 411.55 368.34 412.55 367.5C415.11 366.18 417.66 364.42 420.19 362.23L421.14 361.39L428.51 354.27L431.4 352.79L431.2 352.79C428.25 353.99 426.55 354.67 426.1 354.82C424.93 355.19 424.16 355.4 423.77 355.46C423.19 355.57 422.61 355.64 422.03 355.67C422.16 355.65 422.24 355.62 422.28 355.6L424.86 354.2C424.87 354.21 424.87 354.21 424.88 354.21C425.16 354.21 427.87 353.23 433.03 351.27C433.38 351.18 435.29 349.99 438.75 347.71C439.21 347.48 440.54 347.14 442.72 346.68C443.19 346.51 443.54 346.33 443.78 346.14L449.54 339.28L445.75 345.35ZM419.61 355.59C419.98 355.64 420.35 355.67 420.72 355.68L420.9 355.69C421.03 355.7 421.15 355.7 421.27 355.7C421.48 355.7 421.64 355.69 421.77 355.69L421.98 355.69C421.84 355.72 421.65 355.75 421.43 355.79L421.06 355.86C420.7 355.92 420.47 355.95 420.38 355.97L419.41 355.59L419.61 355.59ZM618.94 360.7L618.94 360.7L618.95 360.7C618.95 360.7 618.96 360.7 618.97 360.7L618.91 360.7C618.91 360.7 618.92 360.7 618.92 360.7L618.92 360.7L618.92 360.7L618.94 360.7ZM619.06 360.78L619 360.78C619.01 360.77 619.02 360.77 619.02 360.77C619.03 360.77 619.04 360.77 619.06 360.78ZM695.17 302.5C693.22 304.2 690.55 307.07 687.16 311.13C685.91 312.86 684.3 316.22 682.31 321.2C680.22 327.76 678.95 332.3 678.49 334.81C677.94 337.97 677.55 340.9 677.3 343.58L677.19 344.71C677.29 346.79 677.27 348.43 677.15 349.64C677.05 351.14 676.87 352.79 676.61 354.58L673.83 365.6L673.63 365.6C674.05 363.67 674.31 362.37 674.4 361.68L678.67 324.45C679.82 320.37 680.73 316.79 681.38 313.7C681.66 312.74 682.21 311.86 683.02 311.07L691.71 304.3C692.56 303.67 693.48 303.14 694.46 302.71L694.96 302.5L695.17 302.5ZM670.03 331.43C670.18 331.79 670.3 332.16 670.37 332.55C670.39 333.43 670.61 334.97 671.02 337.19L670.86 339.02C670.86 340.27 670.85 340.97 670.83 341.12L670.33 344.19C670.29 344.48 670.28 344.75 670.29 345.02C670.29 345.06 670.3 345.19 670.32 345.4L671.48 349.71C671.52 349.84 671.68 351.3 671.94 354.1C671.97 354.37 672.02 354.66 672.1 354.96L672.09 355.03C672.12 355.26 672.5 355.87 673.21 356.88C673.3 357.05 673.36 357.24 673.39 357.42C673.41 357.58 673.41 357.68 673.4 357.71L672.71 363.98C672.19 365.17 671.68 366.42 671.21 367.72C670.83 368.66 670.27 370.37 669.52 372.83C669.43 373.04 669.36 373.21 669.3 373.34L669.12 373.34C669.22 372.14 669.32 371.35 669.41 370.98C670.19 368.65 670.63 367.15 670.73 366.47C670.78 366.1 670.81 365.81 670.82 365.6L670.79 364.64C670.84 363.68 670.87 363.02 670.86 362.67L670.5 359.36L670.33 355.17C670.29 354.68 670.18 353.87 670 352.75C669.74 351.23 669.55 350.19 669.42 349.65C668.63 347.29 668.01 344.78 667.56 342.12C667.5 341.47 667.48 340.9 667.48 340.4L667.6 329.57C667.51 327.34 667.47 325.91 667.48 325.27C667.64 320.19 668.3 315.65 669.46 311.67L669.92 310.17L670.03 331.43ZM698.54 339.12L698.16 342.72C697.74 346.15 697.36 348.63 697.05 350.15C696.85 351 696.74 351.44 696.71 351.47C696.29 352.43 695.7 354.21 694.93 356.81C694.51 358.32 694.12 359.9 693.77 361.55L691.17 365.69L681.55 377.8L684.4 378.17L681.46 377.92L681.26 378.17L681.09 378.17C681.14 378.09 681.18 378 681.23 377.92L681.43 377.92L661.09 376.19C660.83 375.92 660.59 375.79 660.37 375.77C658.98 375.55 657.75 375.44 656.69 375.44C656.59 375.44 656.49 375.44 656.39 375.44L652.82 374.82L649.58 373.69L644.29 372.46L631.76 369.08C629.21 368.08 625.56 365.78 620.83 362.18L619.08 360.83L619.28 360.83C620.47 361.21 625.24 363.35 633.59 367.26C634.72 367.64 636.35 368.15 638.49 368.79C642.32 355.36 644.83 347.01 646.01 343.75L646.41 342.72L646.61 342.72L645.58 352.45L638.72 368.92L638.92 368.92C639.53 369.1 640.17 369.29 640.86 369.49C643.61 370.65 645.24 371.3 645.75 371.43L662.18 374.94L675.41 377.01L681.31 377.77C684.82 371.5 687.33 366.71 688.84 363.4L689.39 362.16L692.7 353.55C694.47 348.9 695.37 346.45 695.39 346.17C696.1 344.88 696.96 342.88 697.96 340.17L698.34 339.12L698.54 339.12ZM415.91 354.54C416.34 354.64 416.95 354.77 417.75 354.94L419.29 355.54L418.99 355.49C418.57 355.42 418.17 355.33 417.76 355.21C417.55 355.16 417.35 355.09 417.14 355.03C416.94 354.96 416.74 354.89 416.53 354.81C416.27 354.74 416.02 354.66 415.79 354.57L415.71 354.54L415.91 354.54ZM407.38 374.42C406.98 375.17 406.43 376.3 405.74 377.82C405.76 377.4 405.81 377.01 405.87 376.65C405.9 376.48 405.94 376.31 405.98 376.14L406.04 375.9C406.08 375.75 406.13 375.6 406.18 375.46L406.17 375.42L406.18 375.36C406.25 375.23 406.5 374.98 406.94 374.61L407.17 374.42L407.38 374.42ZM669.17 373.6C669.15 373.65 669.13 373.67 669.12 373.67C669.1 373.67 669.1 373.65 669.1 373.6L669.17 373.6ZM391.12 300.08C390.61 306.46 390.1 313.9 389.59 322.39L386.3 343.06L385.59 360.5C385.2 363.99 384.88 366.05 384.65 366.68C383.94 368.61 383.26 369.94 382.62 370.66C378.1 374.46 375.77 376.54 375.63 376.9L370.41 385.12C372.08 381.56 374.19 377.63 376.73 373.34L377.47 371.63C377.95 370.41 378.44 369.03 378.92 367.49L381.29 357.44L381.31 329.14L390.91 300.08L391.12 300.08ZM405.7 378.32C405.66 379.98 405.78 381.76 406.05 383.66C406.41 384.95 406.96 386.15 407.71 387.28C408.03 387.73 408.41 388.08 408.85 388.35C412.31 389.93 414.04 390.77 414.05 390.88L414.19 390.99L414.16 391.04C414.31 391.17 414.5 391.35 414.72 391.6L414.94 391.89C415.1 392.35 415.24 392.69 415.37 392.93C415.64 393.36 415.85 393.61 416.01 393.69C416.03 393.76 416.03 393.8 416.01 393.82L415.92 393.9C414.8 393.88 413.79 393.82 412.88 393.74L411.59 393.58C410.78 393.47 410.07 393.32 409.46 393.14L408.63 392.84C408.12 392.63 407.72 392.39 407.42 392.12C406.7 391.37 406.29 390.89 406.18 390.68C405.95 390.33 405.76 389.95 405.63 389.54L404.71 386.3C404.25 384.56 404 383.27 403.95 382.43C403.93 382 403.96 381.69 404.05 381.49L404.21 381.27L405.36 378.63L405.5 378.32L405.7 378.32ZM369.81 386.4C368.63 388.92 367.65 391.06 366.89 392.84C366.69 393.07 366.48 393.27 366.27 393.45C365.54 394.07 364.79 394.38 364.03 394.38C363.26 394.38 362.47 394.07 361.66 393.44C362.4 392.94 363.1 392.45 363.76 391.96L364.71 391.25C365.32 390.78 365.89 390.32 366.42 389.87C367.47 388.96 368.34 388.1 369.04 387.28L369.6 386.4L369.81 386.4Z" />
		</g>
	</g>
</svg>