<?xml version="1.0" encoding="UTF-8"?>
<svg viewBox="0 0 197.01511 334.77975" xmlns="http://www.w3.org/2000/svg">
 <defs>
  <clipPath id="k">
   <g transform="matrix(.99873 0 0 1.0924 61.909 -34.396)">
    <path d="m-68.104 54.572c0 11.644-9.439 21.083-21.083 21.083s-21.083-9.439-21.083-21.083 9.439-21.083 21.083-21.083 21.083 9.439 21.083 21.083z"/>
    <path d="m-64.335 44.228c-3.5466 29.404-7.4094-4.3396-12.15-3.5613-0.15088 6.1186 0.36793 7.2141 0.08395 13.731-0.36086 2.6456-24.7-1.5311-27.614-8.9947-1.0784-1.0626-9.3396 17.793-10.01-0.68201-0.48702-13.423 11.184-23.63 24.616-23.63s25.074 9.7062 25.074 23.138z"/>
   </g>
  </clipPath>
  <clipPath id="h">
   <path d="m-141.72 16.128c-2.918-4.1535-4.4572-6.7401-8.1916-6.4906-1.2448 0.08317-2.723 0.4898-4.5923 1.2545-0.13986-1.6306-5.2636 4.88-9.8051 12.818-4.1942 7.3305-4.0362 12.717-1.7066 17.263 5.9228 7.5158 14.643 9.1796 24.389 9.2995 4.3518-0.03264 11.05-0.82531 14.025-1.6908 13.019-4.8097 11.814-14.382 8.533-24.871-3.4391-8.0694-9.9826-14.219-9.7741-12.818-2.3366-0.95586-4.0791-1.3447-5.4921-1.2545-3.1086 0.1985-4.71 2.6832-7.3849 6.4906"/>
  </clipPath>
  <clipPath id="g">
   <path d="m49.292 52.374c-0.32579 2.607-1.2675 5.1351-2.7267 7.3199-1.8595 2.7841-4.5624 4.9968-7.659 6.2696-2.0441-3.0396-3.4869-6.4818-4.2209-10.071-0.48217-2.3574-0.66046-4.7768-0.52907-7.1795 3.1489-0.64301 6.4667-0.43846 9.5128 0.58649 2.035 0.68475 3.948 1.7306 5.6229 3.074"/>
  </clipPath>
  <clipPath id="j">
   <path d="m36.088 8.7792c1.4887 5.7086 4.7373 10.945 9.1906 14.815s10.092 6.3554 15.953 7.0327c6.5768 0.76006 13.397-0.77781 19.011-4.2869s9.9846-8.9657 12.183-15.211"/>
  </clipPath>
  <clipPath id="i">
   <path d="m-30.273-16.001c-0.47281 6.3915 1.0294 12.915 4.2499 18.456s8.1454 10.076 13.933 12.829c6.4949 3.0894 14.046 3.9016 21.049 2.2641s13.412-5.7138 17.863-11.363"/>
  </clipPath>
  <clipPath id="l">
   <path d="m-179.02 50.163c4.8869 44.734 10.209-6.602 16.741-5.418 0.20791 9.3085-0.50696 10.975-0.11567 20.889 0.49724 4.0249 34.034-2.3293 38.05-13.684 1.4859-1.6166 12.869 27.069 13.793-1.0376 0.67107-20.421-15.41-35.95-33.918-35.95s-34.55 14.767-34.55 35.201z"/>
  </clipPath>
  <filter id="f" x="-.17343" y="-.24495" width="1.3468" height="1.4899">
   <feGaussianBlur stdDeviation="3.59172"/>
  </filter>
  <filter id="e" x="-.99385" y="-1.1043" width="2.9877" height="3.2086">
   <feGaussianBlur stdDeviation="8.28205"/>
  </filter>
  <filter id="d" x="-.83198" y="-.92442" width="2.664" height="2.8488">
   <feGaussianBlur stdDeviation="6.93317"/>
  </filter>
  <filter id="c" x="-.44481" y="-1.6385" width="1.8896" height="4.277">
   <feGaussianBlur stdDeviation="6.29521"/>
  </filter>
  <filter id="b" x="-.4588" y="-1.2682" width="1.9176" height="3.5364">
   <feGaussianBlur stdDeviation="6.29521"/>
  </filter>
  <linearGradient id="a" x1="40.699" x2="39.798" y1="43.557" y2="60.704" gradientUnits="userSpaceOnUse">
   <stop stop-color="#b3b3b3" offset="0"/>
   <stop stop-color="#b3b3b3" stop-opacity="0" offset="1"/>
  </linearGradient>
 </defs>
 <path d="m99.146 188.03c-10.748-17.407-16.418-28.248-30.174-27.202-4.5852 0.34858-10.03 2.0527-16.915 5.2575-0.51515-6.834-19.388 20.452-36.117 53.718-15.449 30.722-14.867 53.298-6.2862 72.348 21.816 31.499 53.938 38.471 89.835 38.974 16.03-0.13678 40.703-3.4588 51.661-7.0862 47.955-20.157 43.516-60.273 31.431-104.24-12.668-33.819-36.771-59.589-36.002-53.718-8.6068-4.006-15.025-5.6356-20.23-5.2575-11.45 0.83192-17.349 11.245-27.202 27.202" fill="#f00" stroke="#000" stroke-width="7.3148"/>
 <path transform="matrix(3.6098 0 0 4.1173 611.84 124.14)" d="m-144 29a10 9 0 1 1 -20 0 10 9 0 1 1 20 0z" clip-path="url(#h)" fill="#fff" filter="url(#d)" stroke="#fff" stroke-linecap="round"/>
 <path d="m179.57 126.11c0 42.585-34.522 77.107-77.107 77.107s-77.108-34.522-77.108-77.107 34.522-77.107 77.108-77.107 77.107 34.522 77.107 77.107z" fill="#f4d2ba" stroke="#000" stroke-linecap="square" stroke-width="7.3148"/>
 <g transform="translate(71.574 119.87)">
  <path d="m-30.273-16.001c-0.47281 6.3915 1.0294 12.915 4.2499 18.456s8.1454 10.076 13.933 12.829c6.4949 3.0894 14.046 3.9016 21.049 2.2641s13.412-5.7138 17.863-11.363" opacity=".87"/>
  <path d="m36.088 8.7792c1.4887 5.7086 4.7373 10.945 9.1906 14.815s10.092 6.3554 15.953 7.0327c6.5768 0.76006 13.397-0.77781 19.011-4.2869s9.9846-8.9657 12.183-15.211" opacity=".87"/>
  <path d="m-20.146 2.3594c3.2571 5.8787 9.1952 10.201 15.79 11.493 5.8584 1.1481 12.148-0.08409 17.14-3.358l-32.93-8.1353" clip-path="url(#i)" fill="#999" filter="url(#b)"/>
  <path d="m46.284 18.647c2.2275 3.1071 5.2763 5.6197 8.7517 7.2127s7.3691 2.2623 11.177 1.9215c5.2889-0.47336 10.377-2.9294 14.037-6.776l-33.966-2.3582" clip-path="url(#j)" fill="#999" filter="url(#c)"/>
 </g>
 <path d="m11.568 88.281c12.971 107.54 27.099-15.872 44.437-13.025 0.55185 22.378-1.3456 26.385-0.30703 50.218 1.3198 9.6761 90.337-5.5997 101-32.897 3.9441-3.8863 34.159 65.075 36.61-2.4944 1.7812-49.092-40.904-86.426-90.029-86.426s-91.707 35.5-91.707 84.624z" fill="#502d16" stroke="#000" stroke-linecap="square" stroke-width="7.3148"/>
 <path transform="matrix(3.662 0 0 3.348 201.94 41.679)" d="m-1.5253 17.24c-3.5466 29.404-7.4094-4.3396-12.15-3.5613-0.15088 6.1186 0.36793 7.2141 0.08395 13.731-0.36087 2.6456-24.7-1.5311-27.614-8.9947-1.0784-1.0626-9.3396 17.793-10.01-0.68201-0.48701-13.423 11.184-23.63 24.616-23.63s25.074 9.7062 25.074 23.138z" clip-path="url(#k)" fill="#502d16" filter="url(#f)" opacity=".39" stroke="#000" stroke-linecap="square" stroke-width="2"/>
 <path d="m109.7 189.39c-1.1915 9.535-4.6358 18.781-9.9727 26.772-6.8008 10.183-16.687 18.275-28.012 22.931-7.4762-11.117-12.753-23.707-15.438-36.832-1.7635-8.622-2.4156-17.471-1.935-26.258 11.517-2.3518 23.651-1.6036 34.792 2.145 7.4429 2.5044 14.439 6.3293 20.565 11.243"/>
 <g transform="matrix(3.6574 0 0 3.6574 -70.58 -2.1577)" clip-path="url(#g)" stroke="url(#a)" stroke-linecap="round">
  <path d="m38.408 48.752c-1.0546 5.1922 0.48927 13.896 1.0056 16.127"/>
  <path d="m36.033 48.814c-0.86708 4.1922 2.6143 13.834 3.1306 16.065"/>
  <path d="m48.088 52.009c-0.70129 2.0619-1.3995 3.8003-2.53 5.6271-2.2963 3.7103-5.2827 5.7238-6.2179 7.0902" stroke-width="1.0974"/>
  <path d="m40.471 48.752c-0.36708 4.3797-1.6357 13.834-1.1194 16.065"/>
  <path d="m42.596 49.189c-0.36708 4.3797-2.0732 13.646-3.4944 15.69"/>
  <path d="m45.158 50.189c-0.36708 4.3797-4.5107 12.521-5.9319 14.565"/>
 </g>
 <path transform="matrix(2.6543 0 0 2.404 486.75 -32.313)" d="m-144 29a10 9 0 1 1 -20 0 10 9 0 1 1 20 0z" clip-path="url(#l)" fill="#b3b3b3" filter="url(#e)"/>
</svg>
